<?xml version="1.0" encoding="UTF-8"?>
<svg id="Layer_1" data-name="Layer 1" xmlns="http://www.w3.org/2000/svg" viewBox="0 0 595.28 841.89">
  <defs>
    <style>
      .cls-1 {
        fill: #000;
      }

      .cls-1, .cls-2 {
        stroke-width: 0px;
      }

      .cls-2 {
        fill: #fff;
      }
    </style>
  </defs>
  <path class="cls-1" d="M196.28,303.1c-4.68.45-8.89-.34-13.03-1.59-2.41-.73-4.21-2.44-5.42-4.5-1.32-2.24-.5-4.7.37-6.93,1.52-3.91,4.88-6.23,8.05-8.67.47-.37,1.01-.65,1.47-1.03,1.01-.82,1.37-1.69.9-3.12-.99-3.02-.64-3.44,2.32-4.71,4.59-1.97,9.09-4.14,13.73-5.97,4.82-1.9,9.74-3.59,14.67-5.19,4.74-1.54,9.52-3.01,14.36-4.19,3.85-.94,7.84-1.33,11.73-2.12,3.9-.79,7.75-.45,11.64-.03,3.74.41,6.81,2.3,9.59,4.59,2.26,1.87,2.61,5.86.8,8.85-2.33,3.85-5.08,7.39-8.68,10.18-3.14,2.43-6.12,5.14-9.47,7.23-7.64,4.76-15.78,8.64-24.4,11.17-7.93,2.32-15.82,5.02-24.15,5.76-1.59.14-3.19.2-4.46.28Z"/>
  <path class="cls-1" d="M233.35,503.08c-1.18.46-2.38.88-3.53,1.39-2.35,1.04-4.52.41-6.57-.77-1.72-.99-2.48-2.52-2.19-4.54.34-2.37,1.39-4.44,3.13-5.98,2.07-1.83,4.41-3.35,6.63-5.02.47-.35.9-.74,1.38-1.13-.81-.98-1.7-1.77-2.23-2.76-.75-1.38-.41-2.25.95-2.93.8-.4,1.66-.69,2.53-.94,7.09-2.06,14.19-4.06,21.26-6.17,5.68-1.69,11.42-2.79,17.39-2.46,1.89.11,3.79-.24,5.69-.18,2.27.07,4.54.39,6.82.52,3.08.17,6.2.07,9.25.45,2.23.27,4.48.91,6.57,1.77,2.05.85,2.88,3.25,2.05,5.31-.51,1.28-1.16,2.63-2.11,3.6-4.47,4.57-9.28,8.67-14.75,12.09-9.01,5.63-18.71,9.88-28.1,14.75-5.67,2.94-11.7,5.1-17.97,6.51-2.53.57-5.02,1.33-7.51,2.06-3.01.88-5.94.28-8.86-.41-1.74-.41-2.86-3.23-1.95-5.26.78-1.71,1.76-3.32,3.55-4.32,2.95-1.65,5.83-3.44,8.74-5.18-.05-.14-.11-.28-.16-.42ZM247.1,498.34c.03.1.07.2.1.3.27,0,.57.07.81,0,7.87-2.57,15.72-5.24,23.62-7.71,4.26-1.33,8.3-3.55,12.94-3.51.46,0,1-.24,1.37-.54,2.7-2.2,5.38-4.42,8.01-6.71.43-.38.52-1.14.89-2.01-3.82-.58-7.19-1-10.35,1.32-3.2,2.36-6.52,4.56-9.8,6.81-1.4.96-2.73,2.11-4.27,2.74-5.45,2.23-10.99,4.25-16.48,6.4-2.31.91-4.56,1.94-6.84,2.92ZM230.96,497.36c5.41.19,33.75-11.68,37.83-15.98-1.25.27-2.1.4-2.92.65-4.88,1.45-9.76,2.88-14.63,4.39-4.29,1.33-8.58,2.67-12.52,4.91-2.84,1.62-5.63,3.29-7.76,6.03ZM235.96,510.85c3.96-.01,13.96-3.98,15.7-6.23-4.69.69-14.08,4.42-15.7,6.23Z"/>
  <path class="cls-1" d="M241.4,644.06c-2.89-.22-5.79-.35-8.66-.68-1.46-.17-2.91-.59-4.29-1.12-1.76-.68-3.45-1.55-5.15-2.39-5.04-2.49-5.88-7.33-2.22-11.62,2.65-3.1,6.03-5.21,9.37-7.37,3.34-2.16,6.78-4.19,10.26-6.13,1.19-.66,2.6-1.04,3.96-1.26,1.91-.32,3.29,1.45,2.44,3.19-.5,1.04-1.33,2.04-2.25,2.72-2,1.48-4.14,2.77-6.27,4.07-4.17,2.55-8.41,5.01-11.62,8.82-1.65,1.96-1.58,2.34.55,3.63,3.09,1.87,6.52,2.45,10.06,2.5,2.6.04,5.21.1,7.79-.14,3.05-.28,5.68.78,8.34,2.01,3.76,1.73,4.51,5.11,3.95,8.23-.8,4.45-2.99,8.32-6.29,11.37-4.32,3.99-8.89,7.71-13.31,11.61-1.95,1.72-3.79,3.55-5.65,5.37-1.63,1.6-2.26,3.39-1.36,5.7,1.38,3.55,1.72,7.24.29,10.84-.76,1.93-1.85,3.74-2.96,5.5-1.87,2.96-3.79,5.95-6.81,7.89-3.77,2.43-7.64,4.71-11.46,7.06-1.19.73-2.37,1.47-3.54,2.24-1.26.82-1.97,1.95-1.97,3.49,0,1.64-.67,2.79-2.21,3.57-1.42.71-2.63,1.83-4.05,2.55-1.14.58-2.5,1.27-3.67,1.13-2.88-.36-5.24.89-7.76,1.79-1.12.4-2.31.78-3.47.81-.6.01-1.56-.67-1.74-1.24-.18-.57.25-1.51.7-2.04.41-.49,1.19-.72,1.84-.95,2-.72,3.93-1.46,4.97-3.56.22-.44.91-.8,1.45-.91,4.32-.83,7.53-3.64,10.83-6.18,2.62-2.02,5.26-3.91,8.18-5.49,4.31-2.33,8.47-4.89,11.62-8.82,2.48-3.11,4.25-6.53,5.05-10.41.38-1.88.14-3.7-.58-5.57-2.51-6.54-2.39-5.15,1.98-10.44,4.6-5.57,10.31-9.99,15.4-15.05,2.04-2.04,3.91-4.28,5.63-6.6.93-1.25,1.52-2.8,2.02-4.3.8-2.4.02-3.64-2.53-3.86-2.28-.2-4.58-.04-6.88-.04,0,.03,0,.06,0,.09Z"/>
  <path class="cls-1" d="M257.89,551.07c-2.32.74-4.65,1.46-6.96,2.22-2.66.87-5.33,1.69-7.94,2.7-2.22.86-4.18.15-6.01-.84-1.9-1.03-2.14-4.23-.53-5.69,2.04-1.86,4.48-3.02,7.2-3.48,4.14-.7,8.29-1.31,12.44-1.95,2.78-.43,5.39-1.33,7.83-3.15-.58-.06-1.2-.26-1.74-.14-6.23,1.39-12.47,2.78-18.68,4.28-1.98.48-3.87.87-5.88.24-1.78-.56-2.74-1.77-2.8-3.75-.04-1.48.53-2.13,2.71-2.6,3.23-.69,6.47-1.3,9.73-1.83,7-1.15,13.98-2.38,21.01-3.25,3.23-.4,6.57-.11,9.85.07,1.02.06,2.16.58,2.98,1.23,2.25,1.78,2.01,4.51-.54,5.86-3.25,1.73-6.59,3.28-9.89,4.91-.52.26-1.02.56-1.62.89.15.46.22.86.4,1.18,1.57,2.75,1.25,5.01-1.41,6.65-3.14,1.93-6.47,3.54-9.72,5.27-1.05.56-2.17,1-3.18,1.62-2.09,1.28-4.3,2.1-6.76,2.17-.59.02-1.21,0-1.77-.16-2.03-.59-2.52-2.07-1-3.54,1.56-1.51,3.3-2.89,5.12-4.09,2.39-1.57,4.93-2.9,7.4-4.34-.07-.17-.14-.33-.22-.5Z"/>
  <path class="cls-1" d="M160.3,741.95c.65-.38,1.3-.77,1.95-1.15.69-.39,1.36-.99,2.09-1.1.93-.15,1.91.11,2.87.19-.07.82-.19,1.64-.21,2.47-.03,2.03-1.22,3.12-2.8,4.24-2.52,1.78-4.79,3.92-7.22,5.84-1.02.81-1.52,1.77-1.66,3.04-.31,2.89-.64,5.72.46,8.58.87,2.25.12,4.29-1.61,5.99-1.77,1.74-3.63,3.42-5.15,5.37-1.21,1.56-2.58,2.61-4.36,3.43-7.37,3.41-15.03,5.38-23.18,5.25-.89-.01-1.79-.13-2.68-.24-1.46-.19-2.05-1.26-2.1-2.52-.05-1.35.98-1.86,2.17-2.01,2.28-.28,4.55-.63,6.84-.81,6.24-.51,11.8-3.13,17.09-6.08,3.73-2.08,6.12-5.58,5.94-10.34-.09-2.38.3-4.77.32-7.16,0-1.07-.39-2.14-.59-3.21-.31-1.68-.19-3.09,1.58-4.09.87-.49,1.53-1.52,2.03-2.44,3.24-5.97,6.4-11.98,9.63-17.95.66-1.22,1.44-2.42,2.35-3.47.82-.94,1.98-1.53,3.19-.63,1.05.78,1,1.91.46,2.98-1.46,2.84-2.96,5.67-4.46,8.49-1.2,2.26-2.44,4.49-3.67,6.74.23.21.46.41.68.62Z"/>
  <path class="cls-1" d="M210.34,239.44c-5.17-.05-8.05-4.34-6.22-8.37.97-2.14,2.25-4.15,3.44-6.19.18-.32.58-.53.9-.75,2.34-1.67,4.63-3.42,7.06-4.95,1.41-.89,3.02-1.47,4.59-2.09,3.83-1.53,7.82-2.4,11.94-2.11,5.28.37,7.06,2.81,7.42,7.25.23,2.85-1.54,4.76-3.56,6.18-2.34,1.65-4.94,3.02-7.58,4.15-5.03,2.16-10.16,4.08-15.26,6.07-1.1.43-2.26.67-2.72.81Z"/>
  <path class="cls-1" d="M255.9,594.03c.74,1.01,1.38,1.77,1.88,2.61.93,1.59.71,2.45-.77,3.56-4.63,3.48-11,3.11-14.91-1.14-.9-.98-1.12-2.71-1.32-4.14-.06-.43.95-1.18,1.61-1.5,2.34-1.12,4.84-1.93,7.07-3.21,2.58-1.48,5.03-3.23,7.35-5.08,1.1-.88,1.79-2.27,3.04-3.93-1.37-.19-2.12-.46-2.81-.35-6.6,1.06-13.23,1.95-19.53,4.35-1.11.42-2.29.77-3.46.92-1.06.14-2.2.14-3.24-.1-1.88-.43-2.99-1.75-3.05-3.25-.07-1.77.81-2.93,3.09-3.41,7.61-1.6,15.21-3.33,22.9-4.51,3.27-.5,6.74-.09,9.8,1.87,3.42,2.18,4.49,5.67,1.93,8.82-2.11,2.59-4.83,4.7-7.32,6.97-.64.58-1.43.98-2.26,1.53Z"/>
  <path class="cls-1" d="M99.1,503.08c.43,2.52-.52,4.36-2.32,5.91-2.1,1.82-4.12,3.72-6.35,5.74,3.71,1.8,7.3,3.63,11.56,1.91.55-.22,1.17-.27,1.76-.37,1.28-.2,2.13.3,2.51,1.56.26.86.73,1.73.71,2.58-.02.63-.61,1.71-1.09,1.79-2.32.4-4.37,1.72-6.93,1.48-3.26-.3-6.04-1.05-7.94-3.94-.46-.7-1.23-1.19-1.8-1.73-1.22.8-2.1,1.68-3.14,1.98-1.75.52-3.33.04-4.44-1.62-1.08-1.61-1.63-3.34-.61-5.05.8-1.33,1.84-2.67,3.09-3.55,3.42-2.42,7.03-4.6,10.54-6.9,1.47-.96,2.89-1.41,4.45.18Z"/>
  <path class="cls-1" d="M154.86,481.95c-3.3,3.06-7.64,2.38-11.33,4.19.57.14,1.21.52,1.7.39,4.04-1.07,8.07-2.19,12.09-3.38,2.03-.6,3.01-.46,3.62.8.96,2,.48,4.64-1.28,5.2-4.46,1.42-8.95,2.8-13.53,3.71-1.55.31-3.49-.65-5.06-1.41-1.76-.85-1.31-2.66-.92-4.29-2.22-.54-4.22-1.02-6.32-1.53-.27-1.86.63-3,2-3.73,4.56-2.42,9.37-3.97,14.63-3.56,2.45.19,2.82.53,4.41,3.6Z"/>
  <path class="cls-1" d="M416.21,464.36c2.13-.21,4.09-.39,6.05-.58,4.98-.48,8.54,2.26,11.85,5.37,1.25,1.18,1.22,3.54.33,4.42-1.03,1.02-3.23.76-4.58-.66-.52-.55-.86-1.31-1.18-2.03-1.09-2.39-1.35-2.55-3.83-2.36-4.47.36-8.95.65-13.42,1.06-.96.09-1.88.59-2.82.89-3.31,1.07-6.61,2.19-9.95,3.17-.53.16-1.52-.11-1.77-.51-.24-.37.03-1.36.41-1.78.86-.95,1.88-1.78,2.91-2.54,2.72-2.01,5.52-3.92,8.23-5.95,1.03-.77,1.84-1.82,2.82-2.66,1.97-1.68,4.07-.92,4.63,1.65.16.75.2,1.53.32,2.49Z"/>
  <path class="cls-1" d="M113.72,772.45c-1.8-.17-3.33-.66-4.47-1.88-.55-.6-1.12-1.66-.95-2.32.16-.63,1.23-1.16,2-1.45,1.75-.66,3.73-.86,5.34-1.74,3.83-2.11,7.47-4.55,11.24-6.77,1.26-.74,2.63-1.38,4.04-1.78,1.08-.31,2.21,0,2.69,1.3.47,1.29.69,2.53-.66,3.48-4.31,3.05-8.4,6.43-13.25,8.67-.91.42-1.75.98-2.67,1.36-1.08.44-2.21.76-3.31,1.13Z"/>
  <path class="cls-1" d="M406.29,454.96c-.63.08-1.33.25-2.01.23-4.33-.13-8.55.43-12.72,1.63-2.79.8-5.1-.13-6.92-2.34-.67-.81-1.2-1.8-.44-2.71.59-.7,1.51-1.48,2.34-1.56,4.95-.45,9.91-.71,14.88-1.01.7-.04,1.43-.11,2.09.05,3.69.92,5.46.83,2.79,5.71Z"/>
  <path class="cls-1" d="M89.78,799.09c-1.42-.37-2.67-.62-3.87-1.03-1.39-.48-1.93-1.66-1.21-2.86,2.31-3.83,4.67-7.63,7.24-11.28,1.16-1.65,3.03-2.51,5.23-2.39,1.41.08,2.09.73,1.91,2.05-.16,1.16-.35,2.44-.97,3.38-2.44,3.75-5.04,7.39-7.59,11.07-.23.33-.46.65-.75,1.06Z"/>
  <path class="cls-1" d="M115.25,494.26c.24,1.76.4,2.93.6,4.35-4.48,2.29-9.12,3.68-14.25,2.66-.78-.16-1.56-.31-2.33-.51-.77-.21-1.56-.4-2.27-.74-1.66-.82-2.88-2.83-2.53-4.03.38-1.32,1.58-1.77,4.09-1.43,1.58.21,3.14.68,4.71.7,1.97.02,3.95-.3,5.92-.47,1.95-.17,3.9-.33,6.05-.52Z"/>
  <path class="cls-1" d="M93.2,771.41c-1.11.99-2.08,1.95-3.14,2.8-1.92,1.56-4.12,2.75-5.3,5.16-.84,1.72-3.95,2.08-5.6.95-1.82-1.25-2.07-3.27-.44-5.19,2.08-2.45,4.44-4.58,7.42-5.94,3.1-1.41,4.38-1.09,7.07,2.21Z"/>
  <path class="cls-1" d="M107.45,537.52c-2.84.09-5.55,0-7.66-2.42-1.32-1.51-1.77-3.07-1.12-4.94.33-.94.59-1.94,1.12-2.76.43-.67,1.24-1.54,1.86-1.52.84.02,1.71.74,2.48,1.28.27.19.37.7.44,1.08.34,1.87,1.59,2.58,3.32,2.92.95.19,1.98.53,2.71,1.13.71.58,1.3,1.51,1.58,2.4.51,1.66-.29,2.67-2.03,2.81-.89.07-1.79.01-2.69.01Z"/>
  <path class="cls-1" d="M232.55,702.79c-.19.88-.28,1.75-.57,2.54-.6,1.67-.99,3.54-2.04,4.88-1.62,2.06-3.52,4.03-5.68,5.48-1.92,1.29-4.22.46-5.59-1.25-1.33-1.66-1.07-3.69.94-4.38,3.67-1.26,6.02-4.11,8.65-6.6,1.27-1.2,2.48-1.42,4.28-.68Z"/>
  <path class="cls-1" d="M72.09,505.83c-2.93.1-5.19-1.29-7.27-3.12-.81-.71-1.83-1.33-1.3-2.72.5-1.29,1.83-2.23,3.32-2.03,1.26.17,2.6.43,3.69,1.02.99.54,1.79.5,2.82.37,1.56-.21,3.16-.23,4.73-.15,1.11.06,1.92.88,1.89,1.98-.02.78-.41,1.78-.98,2.26-1.97,1.64-4.35,2.37-6.9,2.39Z"/>
  <path class="cls-1" d="M361.66,534.03c-1.58-.35-2.74-.58-3.9-.86-1.17-.28-2.19-1.02-1.94-2.23.22-1.06.9-2.56,1.73-2.85,2.98-1.04,6.09-1.76,9.2-2.37,1.78-.35,2.46.56,2.35,2.46-.12,2.07-.89,3.61-3.02,4.28-1.59.5-3.14,1.11-4.43,1.57Z"/>
  <path class="cls-1" d="M367.58,510.28c-1.02-.46-2.82-1.08-4.4-2.04-1.21-.74-1.16-2.51.13-3.27,1.51-.89,3.23-1.49,4.93-1.97,1.42-.4,2.94-.51,4.43-.63,1.56-.13,2.68,1.16,2.34,2.58-.58,2.45-4.16,5.34-7.43,5.33Z"/>
  <path class="cls-1" d="M47.17,498.96c.88.17,1.19.19,1.47.29,2.99,1.05,5.98,2.11,8.96,3.2.45.17,1.06.49,1.17.86.25.9.56,2,.24,2.76-.21.51-1.53.93-2.25.79-2.92-.56-5.82-1.3-8.69-2.08-.74-.2-1.44-.67-2.04-1.16-.93-.75-2.08-1.71-1.23-2.98.58-.87,1.8-1.3,2.39-1.7Z"/>
  <path class="cls-1" d="M407.73,534.95c1.83-.31,3.22-.78,4.59-.71,1.3.06,1.94,1.31,1.83,2.63-.11,1.31-1.02,1.67-2.07,1.66-1.07,0-2.14-.22-3.44-.37-.83,1.49-2.14,2.57-4.17,2.46-2.07-.11-2.94-.67-3.34-2.7-.2-1.04-.17-2.18.03-3.22.35-1.89,1.78-2.72,3.53-1.92,1.22.56,2.23,1.58,3.05,2.18Z"/>
  <path class="cls-1" d="M388.85,522.35c2.89.3,5.85.52,8.78.95,1.53.23,2.58,1.64,2.44,2.96-.15,1.42-.97,2.34-2.4,2.71-2.4.62-4.75.66-6.98-.56-2.66-1.46-3.09-2.86-1.85-6.06Z"/>
  <path class="cls-1" d="M153.65,574.44c1.25,1.06,2.27,2.16,2.58,3.87.21,1.15.68,2.28,1.16,3.37.93,2.11.6,3.1-1.47,4.04-2.82,1.28-5.4-.11-5.58-3.17-.09-1.68.23-3.38.39-5.06.16-1.73,1.2-2.64,2.92-3.05Z"/>
  <path class="cls-1" d="M392.74,101.78c-2.53-.54-5.08-1.01-7.59-1.65-.56-.14-1.3-.85-1.35-1.35-.05-.52.52-1.38,1.04-1.62,2.08-.95,4.26-1.68,5.89-3.4.16-.17.57-.15.86-.16,2.64-.05,5.37,4.28,4.23,6.68-.64,1.34-1.8,1.42-3.09,1.5Z"/>
  <path class="cls-1" d="M401.37,491.95c2.16.42,4.1,1.61,4.36,2.99.22,1.19-.69,3.49-1.8,3.8-1.5.41-3.09.62-4.65.62-.94,0-1.91-.47-2.84-.82-2.2-.84-2.61-3.39-.56-4.6,1.64-.97,3.64-1.35,5.48-1.99Z"/>
  <path class="cls-1" d="M173.04,550.08c-2.14-.04-3.51-.28-4.25-1.71-.66-1.27.03-2.34.77-3.27,1.18-1.46,2.44-2.86,3.73-4.23.86-.91,1.96-1.49,3.19-.85,1.13.59.93,1.68.98,2.83.09,2.38-.72,4.27-2.35,5.83-.73.7-1.7,1.15-2.07,1.4Z"/>
  <path class="cls-1" d="M359.41,452.8c0,1.24.13,2.43-.03,3.57-.24,1.8-1.96,2.12-3.25,2.67-3.01,1.28-6.27-.68-6.29-3.71,0-.61.6-1.65,1.08-1.75,2.41-.52,4.87-.81,7.32-1.13.34-.04.73.21,1.16.35Z"/>
  <path class="cls-1" d="M336.98,404.5c.05-2.91,1.97-3.95,4.68-2.54,1.52.79,2.98,3.79,2.61,5.34-.34,1.4-2.58,3.07-4.31,3.26-1.29.14-2.18-.41-2.43-1.64-.29-1.45-.38-2.94-.55-4.41Z"/>
  <path class="cls-1" d="M427.66,475.91c2,1.59,3.26,2.88,2.76,4.93-.47,1.94-2.38,3.16-4.84,3.26-.89.04-1.81.08-2.68-.08-2.04-.38-2.78-2.41-1.25-3.73,1.86-1.6,3.96-2.92,6.01-4.39Z"/>
  <path class="cls-1" d="M124.88,492.26c-2.25-.13-3.65-.58-4.33-2.15-.71-1.63-1.55-3.24-1.91-4.95-.37-1.71.78-2.45,2.34-1.6,1.1.6,2.08,1.48,3,2.36.78.75,1.47,1.63,2.03,2.55.48.78,1.24,2.01.95,2.49-.46.77-1.68,1.08-2.08,1.31Z"/>
  <path class="cls-1" d="M121.07,514.02c-.06-2.51.66-3.6,2.38-4.12,1.56-.47,3.07.15,4.07,1.66.11.17.19.35.29.52,1.34,2.29,1.39,4.21.12,5.14-1.28.94-4.89.3-6.04-1.21-.51-.67-.66-1.6-.81-1.99Z"/>
  <path class="cls-1" d="M350.34,522.44c.04,2.48-1.87,3.79-3.66,3.14-1.61-.59-3.02-1.55-3.73-3.25-.73-1.75-.35-3.08,1.21-4.15,1.38-.95,2.79-.87,3.97.6,1.03,1.28,1.72,2.83,2.21,3.67Z"/>
  <path class="cls-1" d="M396.77,550.81c2.76,1.39,3.07,3.86,3.51,6.19.09.49-.46,1.34-.95,1.66-1.79,1.17-4.86.56-5.92-1.05-1.22-1.85-.79-3.89,1.24-5.5.62-.49,1.35-.84,2.12-1.3Z"/>
  <path class="cls-1" d="M61.99,422.29c-2.19.03-3.65-1.46-3.66-3.74-.01-2.2,1.32-3.92,3.07-3.96,2.2-.05,4.08,1.94,4.19,4.44.09,2.06-1.19,3.22-3.6,3.26Z"/>
  <path class="cls-1" d="M450.92,408.16c2.18.05,3.64,1.61,3.63,3.9,0,1.86-1.34,3.18-3.23,3.19-2.1.02-4.58-1.97-4.49-3.59.13-2.12,1.8-3.55,4.08-3.5Z"/>
  <path class="cls-1" d="M140.27,457.29c-.04-2.06,1.34-3.08,3.27-2.44,1.55.52,2.78,1.37,3.69,2.81.75,1.17.97,2.46.03,3.24-.87.73-2.34,1.23-3.46,1.1-1.76-.2-3.51-2.88-3.54-4.72Z"/>
  <path class="cls-1" d="M284.82,135.27c2.07-3.77,5.01-4.77,8.3-5.06.54-.05,1.34.46,1.66.95.23.35.07,1.33-.27,1.62-1.88,1.62-3.81,3.33-6.43,3.49-.95.06-1.93-.57-3.25-1Z"/>
  <path class="cls-1" d="M115.44,471.39c-1.6-.58-2.96-.92-4.17-1.55-1.14-.6-1.68-2.35-1.25-3.39.57-1.38,1.8-1.61,2.99-1.28,1.31.36,2.59.96,3.77,1.66.96.57,1.82,1.61,1.12,2.73-.51.81-1.61,1.24-2.46,1.84Z"/>
  <path class="cls-1" d="M386.51,337.22c-3.78-.04-5.1-2.14-3.77-5.04.08-.18.17-.37.3-.52.59-.74,1.1-1.95,1.81-2.09,1.31-.26,2.21.95,2.59,2.08.43,1.28.72,2.72.59,4.05-.06.66-1.19,1.23-1.52,1.53Z"/>
  <path class="cls-1" d="M482.57,46.56c-2.22.11-3.47-1.34-4.42-3-.29-.5.03-1.5.34-2.15.41-.86,1.23-1.4,2.23-.99,1.18.49,2.35,1.07,3.42,1.76,1.08.69,1.69,1.7,1.16,3.05-.5,1.27-1.61,1.32-2.74,1.32Z"/>
  <path class="cls-1" d="M398.73,698.87c-2.19.04-3.15-.83-3.27-2.94-.07-1.33,1.59-3.16,2.95-3.23,1.59-.09,3.55,1.72,3.62,3.35.09,1.96-.87,2.78-3.3,2.82Z"/>
  <path class="cls-1" d="M564.98,411.68c-2.61.97-4.31-.42-5.72-1.93-1.33-1.42.31-2.73.62-4.05,4.12-.47,6.23,2.01,5.1,5.98Z"/>
  <path class="cls-1" d="M455.1,54.93c2.33.03,3.39,1.05,3.35,3.19-.04,1.79-.9,2.95-2.22,3-1.75.07-4.26-2.25-4.2-3.88.06-1.7.92-2.35,3.08-2.32Z"/>
  <path class="cls-1" d="M301.54,658.74c-.06,2.44-1.53,3.98-3.58,3.75-1.1-.12-1.82-.66-2.1-1.77-.35-1.35,1.25-4.49,2.55-4.97,1.46-.54,3.18,1.1,3.13,2.98Z"/>
  <path class="cls-1" d="M139.69,249.12c.05,1.68-.99,2.76-2.14,3.72-.33.27-.96.31-1.43.25-1.19-.15-2.08-1.74-1.93-3.3.19-1.95,1.59-3.82,2.81-3.75,1.4.08,2.66,1.53,2.7,3.08Z"/>
  <path class="cls-1" d="M363.64,501.87c-1.7.04-3.26-1.47-3.21-3.09.05-1.34,1.55-2.65,3.1-2.69,1.52-.04,3.32,1.68,3.37,3.2.05,1.64-1.07,2.52-3.26,2.57Z"/>
  <path class="cls-1" d="M74.98,482.58c.76,4.08-.74,5.02-3.95,4.78-1.13-.08-2.26-.58-2.2-1.92.05-1.21.62-2.37,2.02-2.58,1.32-.2,2.68-.19,4.13-.28Z"/>
  <path class="cls-1" d="M356.88,108.07c0,1.55-1.42,2.88-3.08,3.38-1.24.37-2.98-.12-3.42-1.09-.17-.37-.14-1,.06-1.36.65-1.14,3.77-2.47,5.02-2.06.63.21,1.11.86,1.41,1.12Z"/>
  <path class="cls-1" d="M366.38,480.08c.21-3.05,1.43-4.66,3.67-5.52,1.36-.52,2.38.14,2.39,1.57,0,1.44-.77,2.51-2.03,3.02-1.14.46-2.41.58-4.03.93Z"/>
  <path class="cls-1" d="M344.92,109.71c-.77.35-1.35.84-1.91.81-1.56-.07-3.13-.29-4.67-.6-.48-.09-1.26-.72-1.21-.98.11-.58.52-1.28,1.02-1.6,2.26-1.45,4.64-.71,6.77,2.36Z"/>
  <path class="cls-1" d="M357.07,592.99c-1.65-.03-3.32-1.43-3.45-3.14-.04-.49.5-1.31.97-1.51,1.59-.67,4.05.75,4.52,2.46.34,1.25-.56,2.21-2.05,2.18Z"/>
  <path class="cls-1" d="M392.02,576.8c-1.26.06-2.59-1.12-2.62-2.33-.03-1.06,1.28-2.94,2.09-3,.98-.07,2.25,1.6,2.33,3.08.08,1.36-.58,2.18-1.79,2.24Z"/>
  <path class="cls-1" d="M324.29,113.25c-1.83,1.16-3.19,2.13-4.66,2.87-.45.22-1.22-.2-1.84-.32.17-.6.17-1.36.54-1.78,1.33-1.48,3.45-1.84,5.95-.78Z"/>
  <path class="cls-1" d="M77.09,324.47c-1.52-.04-2.47-1.35-2.42-2.62.04-.99.61-1.38,1.54-1.35,1.38.05,3.12,1.32,2.73,2.11-.41.85-1.39,1.42-1.85,1.86Z"/>
  <path class="cls-1" d="M539.56,600.09c-.04,1.79-.99,3.01-2.08,2.81-.51-.09-1.2-.73-1.3-1.22-.19-1,1.53-2.94,2.28-2.67.52.19.88.85,1.1,1.08Z"/>
  <path class="cls-1" d="M372.95,482.35q-2.15.66-3.28-.5c1.14-.58,2.1-.79,3.28.5Z"/>
  <path class="cls-1" d="M329.54,327.44c-1.45-4.07-4.02-7.29-7.61-9.77-4.8-3.31-10.14-5.19-15.83-6.02-6.72-.97-13.47-1.93-20.24-2.37-6.97-.45-13.99-.48-20.98-.28-9.19.26-18.38.79-27.55,1.46-6.17.45-12.34,1.16-18.45,2.12-7.22,1.14-14.14,3.48-21.04,5.85-5.29,1.82-10.79,3.14-15.87,5.39-7.48,3.31-14.68,7.25-21.98,10.95-.62.31-1.19.75-1.72,1.2-2.13,1.85-1.7,4.58.87,5.76.51.23,1,.49,1.89.92-1.03.69-1.73,1.18-2.46,1.64-9.2,5.82-18.7,11.26-26.21,19.35-2.84,3.06-5.76,6.15-7.97,9.66-3.34,5.3-4.16,10.37.57,14.34.22.19.31.52.51.74,4.59,5.15,9.83,9.34,16.51,11.52,11.37,3.71,22.92,2.53,34.45,1.3,4.16-.45,8.23-1.78,12.39-2.1,8.94-.69,17.52-2.85,25.99-5.61,6.26-2.04,12.48-4.27,18.84-5.96,9.57-2.54,18.99-5.49,28.19-9.16,2.59-1.04,5.14-2.2,7.7-3.32,2.73-1.19,5.08-.13,7.34,1.27,1.19.74,1.5,1.85.94,3.12-.32.73-.75,1.41-1.19,2.08-2.42,3.75-6.09,6.08-9.84,8.13-9.18,5.02-19.19,7.89-29.22,10.63-6.74,1.84-13.54,3.45-20.34,5.04-5.05,1.18-10.15,2.18-15.24,3.21-1.49.3-2.93.48-3.79-1.4-.29-.62-1.41-1.08-2.22-1.2-2.27-.34-4.37.38-6.23,1.65-1.77,1.21-1.97,2.81-.95,4.72.97,1.81,2.69,1.88,4.36,2.11,5.68.76,11.17-.64,16.62-1.75,9-1.83,17.91-4.11,26.86-6.17,9.74-2.24,19.25-5.19,28.5-8.97,7.34-3,13.62-7.5,18.52-13.79,3.03-3.89,2.12-8.52-2.02-11.01-.54-.33-.97-.86-1.73-1.55,1.32-.74,2.33-1.35,3.38-1.87,5.61-2.8,11.41-5.3,16.82-8.45,5.93-3.45,11.69-7.27,17.2-11.37,5-3.72,8.69-8.74,11.7-14.19,1.38-2.5,1.45-5.19.51-7.84ZM280.44,314.75c12.29.44,24.54,1.18,36.14,5.81-.01.26-.02.53-.03.79-.59,0-1.2.09-1.77-.01-8.15-1.43-16.3-2.91-24.46-4.31-2.75-.47-5.53-.78-8.3-1.18-.57-.08-1.12-.24-1.68-.36.03-.25.07-.5.1-.74ZM239.36,368.03c-10.61,3.82-21.26,7.53-31.87,11.36-9.23,3.34-18.65,5.88-28.4,7.12-7.45.94-14.75.18-21.96-1.77-1.85-.5-2.76-1.81-2.09-3.59.68-1.83,1.75-3.54,2.83-5.18,2.31-3.49,5.88-5.63,9.09-8.15,7.55-5.92,16.07-10,25-13.33,5.23-1.95,10.37-4.16,15.64-6,8.29-2.9,16.74-5.25,25.36-7.04,7.15-1.49,14.29-2.92,21.6-3.29,2.59-.13,5.19-.02,7.79-.02,0-.14,0-.27.01-.41,3.89.2,7.8.18,11.66.66,3.15.39,6.25,1.27,9.32,2.13,2.32.65,2.74,2.31,1.06,3.97-3.54,3.49-7.1,6.97-10.82,10.28-1.23,1.09-2.87,1.83-4.44,2.41-9.91,3.67-19.84,7.28-29.78,10.85ZM293.64,357.31c-3.67,2.01-7.37,3.97-11.13,5.81-3.67,1.79-7.42,3.39-11.15,5.06-1.22.55-2.42.63-3.7-.11,5.8-5.14,12.35-8.53,19.44-11.02,4.23-1.48,8.36-3.24,12.55-4.85,1.18-.45,2.39-.81,3.59-1.21.09.2.19.41.28.61-3.29,1.91-6.55,3.88-9.89,5.7ZM320.65,332.14c-2.75,2.99-6.25,4.98-9.73,6.94-3.92,2.21-7.88,4.34-11.9,6.36-2.67,1.34-5.45,2.46-8.2,3.64-.42.18-.92.17-2.09.37.95-1.16,1.46-1.81,2-2.44,3.14-3.69,2.61-7.19-1.52-9.77-2.47-1.54-5.13-2.5-7.98-3.26-9.96-2.63-20.01-2.21-30.11-1.62-5.81.34-11.56,1.07-17.2,2.43-8.44,2.04-17,3.59-25.17,6.68-8.22,3.1-16.6,5.8-24.74,9.09-11.66,4.71-22.45,10.98-31.47,19.88-1.88,1.86-3.4,4.22-4.59,6.6-2.24,4.48-1.06,9.69,5.67,11.91,7.08,2.33,14.38,3.42,21.86,3.17,1.99-.07,3.98,0,5.98,0,0,.26-.01.53-.02.79-3.36.28-6.71.68-10.07.81-1.76.07-3.32,0-4.38,1.84-.36.62-1.46.99-2.28,1.14-6.7,1.23-13.35.66-19.92-.89-1.62-.38-3.3-1.05-4.61-2.04-2.77-2.1-5.37-4.45-7.95-6.8-4.09-3.73-2.77-8.58-.24-11.61,3.57-4.28,7.37-8.46,11.57-12.1,4.34-3.77,9.19-7,13.99-10.22,8.04-5.41,16.54-10.06,25.18-14.43,5.34-2.7,10.9-5.05,16.54-7.04,7.63-2.68,15.34-5.24,23.18-7.16,9.4-2.3,18.92-4.02,28.68-4.38,9.22-.34,18.4-.56,27.53.8,7.02,1.04,14,2.3,20.98,3.6,6.18,1.15,12.32,2.5,18.48,3.77.59.12,1.18.25,1.74.46,2.15.79,2.41,1.79.82,3.53Z"/>
  <path class="cls-2" d="M267.66,368.06c5.8-5.14,12.35-8.53,19.44-11.02,4.23-1.48,8.36-3.24,12.55-4.85,1.18-.45,2.39-.81,3.59-1.21.09.2.19.41.28.61-3.29,1.91-6.55,3.88-9.89,5.7-3.67,2.01-7.37,3.97-11.13,5.81-3.67,1.79-7.42,3.39-11.15,5.06-1.22.55-2.42.63-3.7-.11Z"/>
  <path class="cls-2" d="M280.44,314.75c12.29.44,24.54,1.18,36.14,5.81-.01.26-.02.53-.03.79-.59,0-1.2.09-1.77-.01-8.15-1.43-16.3-2.91-24.46-4.31-2.75-.47-5.53-.78-8.3-1.18-.57-.08-1.12-.24-1.68-.36.03-.25.07-.5.1-.74Z"/>
  <path class="cls-1" d="M321.02,416.52c-1.61-1.87-3.56-3.07-6.01-3.68-10.84-2.72-21.84-2.42-32.79-1.43-8.65.79-17.26,2.17-25.84,3.54-8.88,1.42-17.77,2.86-26.53,4.82-7,1.57-13.92,3.65-20.7,6.02-6.87,2.4-13.54,5.37-20.25,8.2-3.31,1.4-6.53,3.03-9.77,4.58-1.05.5-1.85,1.22-1.76,2.53.1,1.44.79,2.59,2.19,2.9,1.11.25,2.42.32,3.48-.02,2.37-.76,4.74-1.66,6.95-2.8,7.47-3.83,15.15-7.11,23.04-9.99,9.04-3.29,18.27-5.9,27.67-7.77,9.11-1.81,18.35-2.95,27.55-4.29,9.79-1.42,19.6-2.85,29.54-2.5,3.99.14,7.97.33,11.95.62,1.56.11,3.11.54,4.55,1.8-.57.71-.99,1.37-1.54,1.88-4.53,4.14-9.65,7.52-15.09,10.23-7.77,3.88-15.79,7.27-23.74,10.81-3.26,1.45-6.58,2.74-9.88,4.1-.09-.19-.17-.37-.26-.56,2.98-1.79,5.91-3.66,8.96-5.35,3.69-2.04,7.09-4.46,10.19-7.31,2.59-2.38,2.52-5.07-.4-6.95-1.48-.95-3.21-1.83-4.92-2.07-4.87-.67-9.81-.55-14.63.42-9.3,1.86-18.57,3.94-27.83,5.98-7.91,1.74-15.8,3.52-23.69,5.34-9.8,2.26-18.55,6.75-26.55,12.75-2.97,2.22-5.56,4.72-7.35,8.14-1.98,3.79-.68,6.91,1.25,9.12,2.99,3.42,6.8,5.41,11.25,6.42,4.66,1.05,9.27,1.04,14,.59,6.54-.62,12.74-2.56,18.91-4.52,6.27-1.99,12.36-4.57,18.54-6.86,6.08-2.26,12.19-4.43,18.25-6.75,5.32-2.03,10.58-4.2,15.87-6.32,2.77-1.11,5.56-2.2,8.3-3.38,4.4-1.9,8.78-3.84,13.15-5.81,7.68-3.48,14.96-7.63,21.32-13.22,1.25-1.1,2.31-2.5,3.17-3.93,1.06-1.79.84-3.64-.57-5.28ZM250.49,444.39c-1.91.84-3.92,1.48-5.91,2.12-6.75,2.17-13.51,4.28-20.26,6.45-.75.24-1.46.65-2.15,1.05-2.56,1.49-2.87,4.02-.71,6.1.41.4,1.03.58,1.55.86-.13.24-.26.47-.39.71-1.19.43-2.36.9-3.56,1.28-5.98,1.91-11.89,4.09-18.22,4.57-1.79.13-3.6.06-5.39.21-3.78.33-6.69-1.72-9.62-3.57-1.71-1.08-1.89-3.91-.33-5.94,1.45-1.88,3.09-3.7,4.95-5.15,5.85-4.58,12.23-8.41,19.36-10.55,7.16-2.15,14.5-3.73,21.8-5.39,8.86-2.01,17.75-3.96,26.66-5.71,4.69-.92,9.47-1.4,14.22-2.04.66-.09,1.36.04,2.39.09-.38.62-.52,1.12-.85,1.34-7.51,5.11-15.21,9.9-23.55,13.56Z"/>
  <path class="cls-2" d="M247.1,498.34c2.28-.98,4.53-2.02,6.84-2.92,5.48-2.15,11.02-4.17,16.48-6.4,1.54-.63,2.87-1.78,4.27-2.74,3.28-2.25,6.6-4.45,9.8-6.81,3.15-2.32,6.52-1.9,10.35-1.32-.37.87-.46,1.64-.89,2.01-2.62,2.29-5.31,4.51-8.01,6.71-.36.3-.91.54-1.37.54-4.65-.03-8.68,2.18-12.94,3.51-7.9,2.48-15.75,5.14-23.62,7.71-.25.08-.54.01-.81,0-.03-.1-.07-.2-.1-.3Z"/>
  <path class="cls-2" d="M230.96,497.36c2.13-2.74,4.92-4.41,7.76-6.03,3.94-2.24,8.23-3.58,12.52-4.91,4.86-1.51,9.75-2.95,14.63-4.39.82-.24,1.67-.37,2.92-.65-4.08,4.3-32.43,16.16-37.83,15.98Z"/>
  <path class="cls-2" d="M235.96,510.85c1.62-1.81,11.01-5.54,15.7-6.23-1.74,2.25-11.74,6.22-15.7,6.23Z"/>
  <path class="cls-1" d="M274.67,138.43c-1.86.22-3.73.45-5.55.85-1.69.37-3.34.98-5.28,1.56,0-3.54.04-6.62,0-9.7-.08-5.93,2.42-10.33,7.67-13.15.85-.46,1.6-1.13,2.31-1.64-.96-3.86-1.27-4.09-4.67-3.48-.67.12-1.37.35-1.95.7-5.35,3.2-9.04,7.59-9.5,14.04-.27,3.77-.17,7.57-.27,11.35-.07,2.84-.35,3.09-3.14,3-.5-.02-.99-.13-1.49-.14-4.59-.05-9.2-.26-13.78-.07-4.11.17-7.99,1.47-11.8,3.11-3.15,1.35-5.31,3.87-8,5.75-4.95,3.46-9.11,7.77-12.65,12.64-1.16,1.6-2.17,3.4-2.78,5.27-1.47,4.54-1.43,9.07,1.13,13.3,1.19,1.96,1.17,3.48-.65,5.21-3.33,3.17-6.15,6.8-8.17,10.98-1.72,3.54-3.04,7.18-2.83,11.21.11,2.01.67,3.89,2.55,4.78.94.45,2.41.43,3.38.02,1.3-.54.71-1.86.38-2.91-.33-1.04-1.14-2.21-.89-3.09.92-3.25,1.84-6.59,3.42-9.54,1.53-2.87,3.85-5.32,5.85-7.93.68-.89,1.47-1.17,2.61-.63,4.22,2,8.55,1.6,12.8.23,3.22-1.04,6.32-2.45,9.53-3.55,4.97-1.71,9.34-4.52,13.64-7.42,2.03-1.36,2.12-3.63.39-5.34-1.38-1.37-2.82-2.55-5.01-2.07-.47.1-1.03-.19-2.29-.47,1.37-.78,2.08-1.24,2.84-1.61,5.31-2.57,10.47-5.28,14.76-9.54,2.1-2.09,3.36-4.4,4.2-7.08.36-1.14.61-2.34.71-3.52.24-2.7,1.46-4.2,4.26-4.89,2.98-.73,5.82-2.07,8.66-3.3.7-.3,1.61-1.15,1.64-1.78.05-1.13-1.12-1.26-2.03-1.15ZM239.96,176.64c-4,3.04-7.93,5.09-11.95,6.85-4.33,1.89-8.75,3.79-14.34,3.49,7.74-6.56,16.03-9.98,26.29-10.34ZM256.42,148.64c-.89,5.6-4.01,9.8-8.7,12.68-6.21,3.82-12.6,7.33-18.95,10.92-1.17.66-2.64,1.76-3.86.73-1.35-1.14-.94-3-.35-4.48.93-2.3,1.93-4.61,3.2-6.73,1.59-2.65,2.41-5.39,2.06-9.3-1.08.84-1.95,1.21-2.35,1.87-2.62,4.35-5.16,8.76-7.69,13.16-.29.51-.43,1.12-.56,1.7-.79,3.55-.72,4.04,1.1,7.39-1.7.9-3.38,1.85-5.1,2.71-1.67.84-3.39,1.59-5.42,2.53-1-3.07-2.49-5.74-1.63-9.2,1.42-5.71,4.81-10.01,8.98-13.83,2.72-2.49,5.56-4.85,8.38-7.23,3.73-3.15,8.17-4.68,12.93-5.01,5.27-.36,10.56-.35,15.84-.39,2.18-.01,2.43.4,2.1,2.48Z"/>
</svg>