<?xml version="1.0" encoding="UTF-8"?>
<svg id="Layer_1" data-name="Layer 1" xmlns="http://www.w3.org/2000/svg" viewBox="0 0 595.28 841.89">
  <defs>
    <style>
      .cls-1 {
        fill: #000;
        stroke-width: 0px;
      }
    </style>
  </defs>
  <path class="cls-1" d="M436.67,690.88c.26-.95.22-2.29.86-2.92,2.59-2.52,2.7-5.89,3.38-9.02,1.92-8.76,2.86-17.63,2.73-26.61,0-.43,0-.89.12-1.3,1.43-5,1.7-10.14,1.25-15.24-.28-3.17,1.03-5.93,1.32-8.93.28-2.88,1.46-5.67,1.88-8.55.79-5.5,1.52-11.02,1.89-16.56.27-4.11.05-8.27-.17-12.39-.24-4.46-.58-8.92-1.17-13.35-1.24-9.37-2.47-18.74-4.08-28.05-1.31-7.61-3.19-15.12-4.75-22.68-.97-4.68-1.71-9.4-2.75-14.06-1.7-7.65-3.74-15.22-5.27-22.9-1.08-5.43-1.56-10.98-2.28-16.47-.19-1.4-.28-2.81-.47-4.21-1.69-12.73-1.25-25.46.14-38.16.63-5.71,1.73-11.39,2.82-17.04,1.75-9.08,3.74-18.11,5.45-27.19.62-3.31.78-6.71,1.04-10.07.53-6.73,1.08-13.46,1.46-20.2.44-7.82.73-15.65,1.04-23.47.21-5.22.47-10.45.46-15.67-.01-6.75-.22-13.5-.44-20.25-.17-5.31-.38-10.63-.78-15.93-.66-8.68-1.45-17.36-2.26-26.03-.7-7.48-1.37-14.98-2.29-22.43-.78-6.26-1.66-12.52-3.47-18.6-2.42-8.13-4.67-16.31-7.16-24.41-.89-2.89-2.3-5.62-3.4-8.45-.55-1.4-.95-2.86-1.42-4.29-4.1-12.39-8.52-24.67-11.57-37.41-2.21-9.24-3.49-18.58-4.58-27.97-1.12-9.63-2-19.27-1.5-29,.36-6.94,0-13.93.39-20.87.4-7.27,1.27-14.51,1.99-21.76.25-2.49,2.32-4.52,4.64-4.76,1.74-.18,4.54,1.54,5.08,3.46.26.92-.1,2.07-.4,3.05-.24.8-1.06,1.46-1.18,2.24-1.28,8.29-2.51,16.58-2.44,25,.06,6.53-.02,13.05.03,19.58.02,3.81.09,7.61.27,11.41.1,2.17.7,4.32.67,6.48-.08,6.38,1.42,12.53,2.52,18.73.69,3.95,1.4,7.89,2.22,11.82.47,2.23,1.15,4.42,1.8,6.61,1.47,5,2.88,10.03,4.51,14.98,1.42,4.31,3.14,8.52,4.65,12.8.72,2.04,1.15,4.18,1.89,6.22,1.49,4.08,3.32,8.05,4.6,12.2,2.21,7.17,4.1,14.43,6.11,21.65.09.31.04.67.14.97,1.82,5.5,2.45,11.19,2.98,16.94.62,6.82,1.7,13.6,2.39,20.41.51,4.98.71,10,1.05,15,.02.33,0,.66.06.98,1.27,5.87,1.07,11.88,1.52,17.83.39,5.1.12,10.24.29,15.36.21,6.41.65,12.82.84,19.23.09,2.93-.1,5.88-.3,8.8-.35,4.99-1.09,9.96-1.16,14.95-.12,8.08-.55,16.11-1.56,24.13-.51,4.09-.25,8.26-.55,12.38-.57,7.85-2.46,15.47-4.13,23.13-1.35,6.17-2.48,12.38-3.55,18.61-.7,4.07-1.4,8.17-1.62,12.29-.42,7.7-.65,15.42-.67,23.13-.01,5,.31,10.03.79,15.01.45,4.64,1.19,9.27,2,13.87.54,3.09,1.49,6.1,2.15,9.17,1.7,7.87,3.38,15.75,4.99,23.64,1.84,9.05,3.61,18.11,5.34,27.18,1.04,5.45,2.06,10.9,2.9,16.38.51,3.33.59,6.73,1.01,10.08.34,2.69,1.11,5.34,1.34,8.03.61,7.03,1.06,14.06.95,21.14-.12,7.67-1.25,15.13-2.73,22.63-1.77,8.96-2.31,18.12-3.34,27.19-.38,3.34-.36,6.73-.78,10.06-.58,4.52-1.46,8.99-2.11,13.5-.45,3.13-.55,6.31-1.11,9.41-.42,2.33-1.08,4.69-2.1,6.81-1.57,3.27-5.09,4.38-8.38,2.78Z"/>
  <path class="cls-1" d="M510.75,105.62c-.11,1.87-.17,3.61-.32,5.35-.43,4.98-.77,9.91.23,14.92.68,3.38.49,6.92.78,10.39.6,7.15.97,14.3,2.94,21.29,1.05,3.74,1.18,7.73,1.83,11.59.94,5.58,1.83,11.18,3.04,16.7.81,3.68,2.19,7.24,3.25,10.87.88,3.02,1.88,6.03,2.47,9.11,1.67,8.8,4.27,17.3,7.29,25.72,1.54,4.3,2.54,8.79,4.04,13.1,2.69,7.76,3.62,15.88,5.2,23.86,1.19,5.98,2.71,11.91,3.61,17.93.86,5.7,1.21,11.48,1.59,17.23.3,4.45.46,8.92.38,13.38-.06,3.57-.53,7.14-.91,10.71-.49,4.66-1,9.32-1.63,13.96-.61,4.52-1.43,9.02-2.07,13.54-.54,3.77-.93,7.55-1.46,11.32-.41,2.9-1.08,5.77-1.39,8.67-.57,5.28-.99,10.58-1.41,15.88-.44,5.63-.9,11.26-1.18,16.89-.19,3.68-.08,7.38-.11,11.07,0,.87.13,1.78-.06,2.61-.63,2.74.01,5.38.32,8.08.26,2.25-.21,4.57,0,6.83.79,8.88,1.82,17.73,2.57,26.61.56,6.61.81,13.24,1.24,19.87.13,1.95.45,3.89.59,5.84.61,8.9,1.09,17.82,1.79,26.71.79,10.09,1.79,20.17,2.63,30.26.25,3.04.17,6.1.41,9.14.73,9.33,1.59,18.65,2.3,27.98,1.03,13.67,1.99,27.35,2.94,41.02.36,5.08.61,10.16.94,15.24.22,3.47.52,6.94.73,10.42.35,5.73.71,11.47.99,17.2.13,2.6.11,5.22.07,7.83-.08,4.78-.29,9.55-.33,14.33-.03,4.02.14,8.04.17,12.06,0,1.28-.15,2.57-.25,3.85-.25,3.57-.45,7.14-.77,10.7-.92,10.09-1.89,20.17-2.84,30.26-.47,4.99-.85,9.99-1.45,14.96-.56,4.64-1.41,9.24-2.06,13.87-.57,4.1-1.01,8.21-1.56,12.31-.51,3.77-1.09,7.54-1.64,11.3-.05.32-.12.64-.21.96-.46,1.62-1.38,2.39-2.41,1.9-1.27-.6-1.45-1.5-1.02-2.95.58-1.96.68-4.06.9-6.11.63-5.74,1.26-11.48,1.83-17.23.9-9.11,1.85-18.22,2.59-27.34.9-10.96,1.84-21.93,2.32-32.92.38-8.59.08-17.22.11-25.83.01-4.9.24-9.81.07-14.7-.29-8.15-.75-16.3-1.26-24.45-.44-7.05-1-14.09-1.59-21.13-.6-7.16-1.32-14.31-1.92-21.47-.56-6.72-1.06-13.45-1.53-20.17-.85-12.16-2.33-24.28-2.5-36.49-.05-3.47-.81-6.92-1.11-10.39-.72-8.46-1.35-16.93-2.04-25.39-.43-5.32-.97-10.63-1.35-15.95-.45-6.41-.71-12.84-1.19-19.25-.28-3.69-.89-7.35-1.23-11.04-.43-4.66-.6-9.35-1.11-14-1-9.21-1.95-18.42-1.77-27.7.15-7.72.39-15.45.65-23.17.17-4.9.26-9.81.73-14.69.69-7.26,1.58-14.51,2.57-21.74,1.52-11,3.27-21.98,4.79-32.98.66-4.74,1.13-9.53,1.45-14.3.67-10.05.09-20.03-1.76-29.94-1.48-7.92-2.54-15.93-4.23-23.81-1.85-8.62-4.02-17.18-6.42-25.66-2.1-7.42-4.87-14.66-7.05-22.06-1.55-5.3-2.56-10.76-3.9-16.12-.77-3.06-1.85-6.04-2.55-9.12-1.4-6.16-2.66-12.35-3.92-18.54-.84-4.16-1.65-8.33-2.35-12.51-1.14-6.87-2.72-13.72-3.11-20.64-.59-10.31-1.82-20.64-.67-31.01.19-1.69-.12-3.46-.37-5.17-.37-2.59.21-4.98,1.21-7.31.61-1.43,1.79-1.77,3.23-1.64,1.43.12,2.17.96,2.36,2.28.34,2.37.59,4.74.87,7.01Z"/>
  <path class="cls-1" d="M58.67,764.86c.41-9.11.77-16.5,1.06-23.89.11-2.93-.05-5.88.14-8.8.18-2.71.79-5.39.98-8.09.52-7.15,1.46-14.26.84-21.51-.61-7.04-.22-14.16-.72-21.22-.44-6.29-1.49-12.53-2.28-18.79-.15-1.19-.29-2.38-.49-3.56-1.24-7.18-2.43-14.37-3.76-21.54-1.12-5.99-2.5-11.93-3.6-17.91-1.05-5.67-1.99-11.37-2.8-17.08-.81-5.71-1.3-11.47-2.09-17.18-1-7.21-2.21-14.39-3.23-21.59-.47-3.34-.72-6.71-1.05-10.08-1.26-12.95-.88-25.87.4-38.81.53-5.39.16-10.87.51-16.29.28-4.33,1.02-8.63,1.6-12.93.8-5.93,1.53-11.87,2.5-17.77.53-3.2,1.62-6.31,2.28-9.5,1.55-7.46,2.99-14.94,4.49-22.41.28-1.39.68-2.75.98-4.13,3.66-16.79,5.13-33.79,4.73-50.96-.13-5.66-.29-11.31-.59-16.96-.15-2.82-.72-5.62-.96-8.44-.71-8.36-1.34-16.73-2.01-25.09-.34-4.24-.59-8.48-1.07-12.7-1.03-9-.75-18.03-.7-27.04.04-8.27.39-16.54.82-24.8.14-2.69,1.03-5.34,1.52-8.01.86-4.71,1.83-9.41,2.47-14.16,1.2-8.86,4.95-16.91,7.76-25.25,1.7-5.05,3.42-10.1,5.32-15.07,1.36-3.55,2.95-7.02,4.59-10.45,2.01-4.22,4.31-8.3,6.24-12.55,2.51-5.54,4.82-11.17,7.13-16.79.78-1.91,1.34-3.91,1.91-5.9,2.63-9.21,6.95-17.81,9.77-26.96.46-1.48,1.68-2.78,2.76-3.99,1.02-1.15,2.08-.98,2.94.38,1.02,1.61,1.58,3.17.36,5.15-1.06,1.71-1.59,3.77-2.25,5.71-2.63,7.72-5.3,15.43-7.82,23.18-3.28,10.06-7.91,19.53-12.28,29.13-2.6,5.73-4.75,11.67-7.05,17.53-2.66,6.78-5.51,13.51-7.83,20.4-1.76,5.23-3.11,10.63-4.14,16.05-1.42,7.47-2.76,15-3.43,22.56-.69,7.77-.6,15.61-.71,23.42-.09,6.63-.12,13.27.11,19.89.21,5.98.82,11.95,1.22,17.93.4,5.98.74,11.96,1.12,17.93.07,1.09,0,2.21.29,3.25,2.1,7.67,1.66,15.57,2.15,23.38.33,5.32.46,10.67.37,16-.06,4.02-.59,8.02-.94,12.03-.34,3.9-.56,7.83-1.09,11.7-.9,6.46-1.9,12.92-3.06,19.34-1.24,6.85-2.68,13.67-4.1,20.49-1.06,5.12-2.32,10.2-3.33,15.33-.82,4.16-1.44,8.37-2.06,12.57-.66,4.51-1.35,9.03-1.8,13.57-.53,5.3-.87,10.63-1.19,15.95-.48,8.05-1,16.1-1.24,24.16-.11,3.78.39,7.58.61,11.37.05.87.18,1.74.15,2.61-.21,7.22.87,14.29,2.12,21.37.79,4.49.9,9.1,1.34,13.65.95,9.87,1.92,19.74,4.03,29.46,1.55,7.12,2.91,14.28,4.22,21.44.66,3.63.97,7.32,1.53,10.97.67,4.41,1.49,8.79,2.14,13.2.7,4.72,1.35,9.45,1.89,14.19.51,4.55.93,9.11,1.24,13.67.31,4.66.61,9.34.61,14.01,0,6.19-.27,12.38-.42,18.56-.01.44.06.89-.05,1.3-1.47,5.84-1.24,11.88-2.05,17.8-.26,1.91.15,3.89.08,5.84-.11,3.36-.34,6.72-.55,10.08-.03.43-.24.85-.27,1.28-.4,5.3-.75,10.6-1.2,15.9-.1,1.18-.37,2.39-.84,3.46-.24.55-1.15,1.21-1.66,1.13-.53-.08-1.23-.93-1.34-1.53-.6-3.4-1.04-6.83-1.29-8.58Z"/>
  <path class="cls-1" d="M244.89,722.06c-.11-11.93,1.7-23.7,2.82-35.51.72-7.59,1.24-15.2,1.95-22.79.23-2.49.86-4.93,1.13-7.42.87-8.11,1.8-16.22,2.43-24.36.32-4.11-.05-8.26.03-12.39.09-4.68.49-9.35.5-14.03.02-9.47.05-18.95-.29-28.42-.2-5.64-1.19-11.25-1.68-16.89-.73-8.36-1.23-16.75-2.03-25.11-1.22-12.8-1.92-25.63-2.05-38.49-.04-3.58-.74-7.16-.7-10.73.06-5.33.49-10.65.78-15.98.28-5.1.5-10.21.89-15.31.37-4.88.86-9.76,1.39-14.63.61-5.64,1.29-11.27,2-16.89.65-5.08,1.43-10.14,2.08-15.21.69-5.4,1.33-10.81,1.95-16.22,1.23-10.74,1.98-21.51,1.24-32.32-.72-10.55-1.6-21.09-2.45-31.63-.83-10.32-1.53-20.65-2.64-30.93-1.35-12.6-1.9-25.25-1.61-37.89.28-12.08,1.34-24.15,2.4-36.2.46-5.29,1.8-10.5,2.71-15.75,1.08-6.22,2.2-12.44,3.17-18.68,1.41-9.04,2.61-18.11,4.09-27.14.79-4.83,2.16-9.56,2.94-14.39,1.27-7.95,3.19-15.82,3.27-23.94.03-3.27.44-6.54.35-9.79-.08-2.91-.71-5.8-.94-8.72-.22-2.69-.28-5.4-.32-8.11-.02-1.62,1.07-2.25,2.51-2.48,1.59-.25,2.28.74,2.44,2.01.79,6.23,3.07,12.13,3.03,18.62-.06,10.76-1.39,21.27-3.33,31.81-2.11,11.43-3.71,22.96-5.6,34.44-1.63,9.89-3.07,19.82-5.1,29.63-1.95,9.42-3.24,18.85-3.41,28.46-.07,4.02-.83,8.03-.89,12.05-.13,8.93-.23,17.87.06,26.8.25,7.73,1.09,15.43,1.57,23.15.25,4.02.21,8.06.45,12.09.18,3.04.41,6.11.93,9.11.95,5.48,1.44,10.99,1.78,16.54.45,7.39,1.43,14.75,1.62,22.14.17,6.83.43,13.7-.73,20.53-.47,2.76-.37,5.62-.54,8.44-.65,11-2.77,21.79-4.36,32.66-.58,3.98-.87,8.01-1.27,12.02-.71,7.05-1.53,14.09-2.08,21.15-.54,7.05-.6,14.14-1.24,21.19-.75,8.31.42,16.55.42,24.82,0,1.2-.12,2.4-.06,3.6.31,5.65.65,11.29,1,16.93.16,2.6.39,5.2.52,7.8.27,5.33.3,10.68.78,15.99,1.3,14.44,3.19,28.83,2.98,43.37-.09,6.1.11,12.2-.06,18.3-.23,7.93-.67,15.86-1.08,23.79-.31,6.08-.56,12.16-1.13,18.22-.46,4.87-1.42,9.7-2.05,14.56-.85,6.58-1.72,13.17-2.37,19.78-.82,8.24-1.57,16.48-2.08,24.74-.42,6.73-.8,13.45-.62,20.22.3,11.34,1,22.64,2.16,33.91.93,9.1,1.39,18.25,3.15,27.26.81,4.13.86,8.42,1.16,12.65.11,1.51.03,3.06-.17,4.56-.06.47-.86,1.25-1.21,1.19-.62-.1-1.48-.63-1.64-1.17-.33-1.12-.22-2.37-.39-3.55-1.38-9.25-2.95-18.48-4.13-27.76-1.04-8.2-1.68-16.46-2.46-24.7-.42-4.45-.84-8.9-1.14-13.36-.35-5.22-.57-10.44-.85-15.66Z"/>
  <path class="cls-1" d="M134.97,663.59c.53-7.27.97-14.55,1.61-21.81.92-10.41,1.88-20.81,3.02-31.2,1.12-10.21,3.71-20.1,6.7-29.92,1.87-6.13,3.07-12.46,4.72-18.67,1.34-5.05,2.88-10.05,4.37-15.06,1.7-5.73,3.55-11.42,5.15-17.18,1.86-6.71,3.72-13.43,5.2-20.23.78-3.58.77-7.33,1.09-11.01.17-1.95.29-3.91.45-5.86.51-6.34-.44-12.57-1.46-18.8-.76-4.62-1.31-9.28-2.33-13.84-1-4.44-2.38-8.81-3.79-13.15-1.59-4.85-3.38-9.63-5.14-14.43-.82-2.24-1.71-4.45-2.64-6.64-4.18-9.87-5.82-20.52-9.44-30.56-.44-1.21-.54-2.54-.8-3.82-1.49-7.25-2.68-14.57-4.53-21.72-2.88-11.13-4.13-22.41-4.14-33.86,0-4.47-.22-8.94-.1-13.4.12-4.67.5-9.33.82-14,.25-3.69.56-7.38.87-11.06.47-5.64,1.59-11.16,3.16-16.6,1.05-3.66,2.12-7.34,2.78-11.08,1.18-6.66,3.07-13.11,5.39-19.44,2.32-6.34,4.59-12.71,7.13-18.96,2.37-5.84,5.02-11.58,7.62-17.32,2.83-6.23,5.69-12.45,8.64-18.63,3.28-6.87,6.81-13.63,9.96-20.56,1.65-3.65,2.69-7.57,4.04-11.36,2.56-7.17,5.43-14.25,7.64-21.53,2.85-9.36,5.17-18.88,7.72-28.34,1.19-4.42,2.37-8.84,3.58-13.25.56-2.04.64-3.99-.11-6.08-.53-1.49-.5-3.2-.57-4.82-.22-4.77.27-9.55-.59-14.33-.51-2.86-.28-5.87-.27-8.81,0-4.36.12-8.72.14-13.08,0-1.41.04-2.81-1.33-3.83-1.5-1.11-1.03-2.49-.16-3.74,1.2-1.73,3.16-2.3,5.2-1.72,1.43.4,2.22,1.21,2.4,2.72.54,4.62,1.52,9.17,1.11,13.92-.27,3.09.4,6.26.52,9.4.21,5.31.52,10.63.4,15.94-.09,3.89-.56,7.82-1.31,11.64-1.43,7.24-3.18,14.41-4.8,21.61-1,4.43-1.87,8.89-3.04,13.28-.83,3.12-2.1,6.12-3.12,9.2-1.4,4.23-2.68,8.51-4.13,12.72-1.13,3.29-2.49,6.5-3.67,9.78-.99,2.75-1.81,5.57-2.83,8.32-1.02,2.73-2.2,5.41-3.29,8.11-4.28,10.6-10.49,20.24-15.23,30.6-1.67,3.65-2.96,7.48-4.52,11.18-2.02,4.8-4.24,9.52-6.19,14.35-1.75,4.34-3.33,8.75-4.81,13.19-1.51,4.54-3.03,9.1-4.12,13.75-3.18,13.55-6.89,26.98-7.93,40.99-.89,11.98-1.22,23.93-.76,35.91.17,4.45.5,8.91,1.02,13.34.31,2.69,1.13,5.32,1.7,7.98,1.74,8.08,3.78,16.11,5.1,24.26,1.06,6.51,3.51,12.56,5.05,18.9.8,3.27,1.67,6.52,2.58,9.75.5,1.78.93,3.63,1.76,5.26,3.31,6.53,5.15,13.62,7.91,20.35,2.29,5.57,3.86,11.33,5.22,17.15.47,2.01.63,4.08.94,6.13.92,6.03,2.11,12.03,2.67,18.09.4,4.41.17,8.9-.17,13.33-.4,5.2-.81,10.47-1.96,15.53-1.95,8.58-4.44,17.05-6.81,25.53-1.49,5.34-2.92,10.72-4.84,15.92-2.69,7.3-3.69,14.99-5.7,22.44-.93,3.46-2.26,6.81-3.2,10.27-2.71,9.97-5.48,19.93-6.14,30.33-.3,4.77-1.11,9.5-1.56,14.25-.79,8.46-1.62,16.91-2.15,25.39-.28,4.55.05,9.14.1,13.71.1,9.23,2.2,18.09,4.73,26.9.47,1.62.47,3.45.3,5.15-.13,1.32-1,2.49-2.6,2.43-1.42-.06-1.92-1.07-2.31-2.34-2.54-8.24-4.65-16.59-5.32-25.2-.31-3.89-.05-7.83-.05-11.75-.18,0-.36-.01-.54-.02Z"/>
  <path class="cls-1" d="M338.28,680.08c.28-4.95.71-9.61.75-14.27.04-5.22-.24-10.44-.46-15.65-.33-7.62-.65-15.24-1.12-22.86-.84-13.38-.76-26.79-2.19-40.15-.73-6.81-.46-13.72-.75-20.57-.13-3.04-.68-6.06-.77-9.1-.18-6.1-.17-12.2-.25-18.3-.1-7.41-.51-14.82-.27-22.22.36-10.89,1.01-21.77,1.86-32.63.4-5.08,1.62-10.09,2.37-15.15.61-4.09,1.18-8.19,1.58-12.31.6-6.13,2.8-11.87,4.06-17.83,1.19-5.65,2.24-11.33,3.36-16.99.47-2.35,1.1-4.67,1.44-7.04,1.29-8.95,2.75-17.89,3.63-26.88.58-5.94.29-11.96-.8-17.9-.67-3.63-1.05-7.33-1.41-11.01-1.1-11.39-2.06-22.79-3.2-34.17-.35-3.46-1.19-6.86-1.64-10.32-.57-4.32-1.17-8.64-1.38-12.98-.32-6.52-.32-13.06-.45-19.6-.16-7.76.67-15.45,1.55-23.14,1.19-10.38,2.18-20.79,3.33-31.18.49-4.44,1.2-8.85,1.77-13.28.9-6.92,1.75-13.84,2.66-20.76.23-1.72.57-3.42.98-5.1.4-1.61,1.62-2.48,3.07-2.31,1.64.2,2.22,1.35,2.1,2.8-.27,3.57-.65,7.13-1.01,10.69-.1.97-.28,1.93-.4,2.9-.72,5.84-1.54,11.66-2.12,17.51-.69,6.93-1.12,13.89-1.75,20.83-.37,4.12-.88,8.24-1.37,12.35-1.42,11.89-2.53,23.79-1.8,35.81.36,5.98.32,11.98.65,17.96.14,2.59.85,5.14,1.17,7.73.77,6.26,1.51,12.52,2.16,18.79.79,7.58,1.07,15.24,2.28,22.75,2.21,13.63,3.31,27.21,1.13,40.94-.63,3.97-.98,7.99-1.41,11.99-.55,5.08-1.34,10.07-2.85,15.02-1.48,4.85-1.94,10.02-2.92,15.03-.42,2.13-1.16,4.2-1.53,6.33-1.4,7.93-2.82,15.86-4.01,23.82-1.07,7.21-2.09,14.45-2.7,21.72-.66,7.91-.95,15.86-1.18,23.8-.21,7.19-.17,14.39-.15,21.58,0,4.02.15,8.04.29,12.06.4,11.42.78,22.84,1.28,34.26.18,4.02.8,8.03,1,12.05.49,9.58.82,19.16,1.26,28.74.33,7.29.92,14.57,1.03,21.86.1,6.52,0,13.08-.59,19.57-.4,4.4-1.77,8.71-2.77,13.05-.42,1.81-1.54,2.52-3.52,1.77Z"/>
</svg>