<?xml version="1.0" encoding="UTF-8"?>
<svg id="Layer_1" data-name="Layer 1" xmlns="http://www.w3.org/2000/svg" viewBox="0 0 595.28 841.89">
  <defs>
    <style>
      .cls-1 {
        fill: #000;
      }

      .cls-1, .cls-2 {
        stroke-width: 0px;
      }

      .cls-2 {
        fill: #fff;
      }
    </style>
  </defs>
  <path class="cls-1" d="M28.61,621.45c1.84-1.19,3.6-2.52,5.52-3.53,4.71-2.49,9.48-4.87,14.26-7.21,2.59-1.27,5.25-2.43,7.9-3.59,5.87-2.57,11.7-5.25,17.66-7.62,6.16-2.46,12.52-4.42,18.64-6.94,7.24-2.98,14.42-6.13,21.45-9.58,7.01-3.44,13.81-7.3,20.65-11.08,2.2-1.21,4.11-.92,6,.44,1.53,1.1,1.76,2.41.46,3.82-.85.92-1.96,1.7-3.09,2.24-8.52,4.04-17.01,8.17-25.65,11.93-6.97,3.03-14.12,5.64-21.23,8.36-8.5,3.25-17.07,6.3-25.52,9.66-9.05,3.59-17.99,7.46-27,11.16-2.28.94-4.6,1.77-6.95,2.52-.87.28-1.85.17-2.79.24-.1-.27-.2-.54-.3-.81Z"/>
  <path class="cls-1" d="M80.39,689.77c.37-.43.73-.86,1.11-1.28.69-.75,1.38-1.51,2.1-2.24.73-.74,1.38-1.65,2.26-2.15,3.73-2.1,7.48-4.18,11.31-6.08,5-2.47,10.14-4.64,15.11-7.16,4.91-2.48,9.25-5.81,13.27-9.56,2.03-1.9,4.05-3.81,6.17-5.61,1.97-1.66,6.85-.8,8.05,1.39.75,1.37.5,2.78-.62,3.83-1.39,1.31-2.85,2.6-4.43,3.68-7.35,5.02-14.86,9.79-22.91,13.61-6.66,3.16-13.39,6.18-20.22,8.94-3.5,1.41-7.28,2.11-10.94,3.13-.09-.17-.18-.33-.27-.5Z"/>
  <path class="cls-1" d="M283.9,636.57c.53.08,1.3.09,2.01.3,2.92.88,3.9,4.68,1.63,6.59-5.4,4.55-11.11,8.66-17.38,11.95-.47.25-1,.67-1.45.6-.77-.11-1.62-.4-2.16-.91-.2-.19.24-1.3.62-1.83,2.44-3.42,5.52-6.23,8.77-8.87,1.69-1.37,3.01-2.95,3.58-5.18.53-2.06,1.86-2.75,4.38-2.66Z"/>
  <path class="cls-1" d="M444,522.69c-2.9,3.02-5.62,4.54-9.36,4.81-3.11.22-6.15,1.6-9.19,2.59-.85.28-1.59.76-2.29-.11-.79-.99-.24-1.8.48-2.53,1.87-1.9,3.71-3.8,6.24-4.9,1.23-.54,2.22-1.62,3.45-2.18,1.12-.51,2.42-.9,3.64-.88,2.66.04,4.65,1.67,7.03,3.2Z"/>
  <path class="cls-1" d="M211.09,302.07c.12,0-.24.1-.52-.02-.92-.38-1.81-.84-2.7-1.28.53-.74.92-1.68,1.62-2.2,2.39-1.78,4.81-3.55,7.38-5.06,1.55-.91,3.3-.68,4.83.5,1.57,1.21,2.5,2.67,2.02,4.71-.39,1.66-1.49,2.56-3.2,2.68-3,.21-5.99.42-9.43.66Z"/>
  <path class="cls-1" d="M418.07,338.88c.33-2.83,2.32-3.07,3.81-3.52,2.04-.61,4.21-1.07,6.32-1.05,1.72.02,3.6.56,5.1,1.43,1.31.75,1.44,3.23.74,4.43-.86,1.5-2.78,2.33-4.78,1.8-2.26-.6-4.45-1.47-6.69-2.12-1.41-.41-2.87-.63-4.5-.98Z"/>
  <path class="cls-1" d="M125.17,293.92c1.17-2.17,2.56-3,4.63-2.6,2.19.43,4.41.75,6.58,1.25,2.51.58,4,2.31,3.66,4.43-.12.79-.83,1.91-1.51,2.12-1.94.61-3.89.74-5.68-.89-1.14-1.04-2.72-1.58-4.1-2.34-1.16-.64-2.33-1.28-3.59-1.97Z"/>
  <path class="cls-1" d="M512.88,191.07c.52-1.16,1-2.19,1.44-3.23.62-1.45,1.32-2.88,1.78-4.39.33-1.08.84-1.59,1.95-1.77,3.24-.51,5.04.18,6.03,2.3.69,1.47.53,2.85-.68,3.78-2.96,2.29-6.01,4.49-10.52,3.3Z"/>
  <path class="cls-1" d="M197.18,408.9c-.54-.11-1.51-.2-2.41-.51-2.17-.73-2.79-2.29-1.69-4.23.87-1.54,2.1-2.66,3.99-2.9,1.69-.21,3.38-.09,4.3,1.44.73,1.21,1.63,2.67.66,4.19-1.01,1.58-2.57,2.19-4.84,2.01Z"/>
  <path class="cls-1" d="M418.84,573.97c2.12.05,3.65,2.13,3.55,4.84-.07,1.87-2.19,3.7-4.15,3.58-2.4-.14-4.72-2.53-4.7-4.82.02-1.93,2.58-3.67,5.3-3.6Z"/>
  <path class="cls-1" d="M475.82,267.4c1.96-.02,4.05,1.43,4.65,3.25.62,1.87-.64,3.85-2.77,4.22-2.1.36-4.01-.37-5.78-1.35-1.19-.66-1.32-1.83-.84-3.07.76-1.98,2.35-3.01,4.75-3.04Z"/>
  <path class="cls-1" d="M561.83,341.83c2.21-.02,4.86,2.33,4.83,4.29-.02,1.84-2.08,3.56-4.24,3.55-2.68,0-4.35-1.56-4.35-4.03,0-2.33,1.44-3.79,3.76-3.81Z"/>
  <path class="cls-1" d="M272.54,515.17c.67-.22,1.34-.44,2.28-.75-.11.67-.08,1.15-.2,1.19-.62.21-1.27.3-1.91.43-.06-.29-.11-.58-.17-.87Z"/>
  <path class="cls-2" d="M307.17,498.41c-2.29.94-4.09,2.92-7.07,3.17,1.48-1.58,4.34-2.84,7.07-3.17Z"/>
  <path class="cls-2" d="M290.41,538.48c.57.18,1.14.37,2.11.68-1.16,1.05-2.03,1.84-3.09,2.8-.67-1.69.58-2.5,1.07-3.55,0,0-.09.07-.09.07Z"/>
  <path class="cls-2" d="M265.8,541.77c.36-.58.62-1.28,1.1-1.73.73-.68,1.62-1.2,2.52-1.84.62,1.33-.48,1.87-1.25,2.4-.73.5-1.63.74-2.45,1.09,0,0,.07.08.07.08Z"/>
  <path class="cls-2" d="M296.22,533.19c.42.35.83.62.8.68-.17.34-.42.63-.69.9-.03.03-.48-.22-.47-.3.05-.37.19-.72.36-1.28Z"/>
  <path class="cls-2" d="M246,568.63q1.55-.36,1.64,1.32c-.67-.59-1.12-.99-1.59-1.38-.01.01-.05.06-.05.06Z"/>
  <path class="cls-2" d="M267.47,479.07c-.34.06-.67.13-1.01.17-.02,0-.09-.25-.08-.25.32-.13.65-.24.98-.35.04.14.08.29.11.43Z"/>
  <path class="cls-2" d="M282.17,535.88v-1.33c.14-.02.28-.04.42-.06.08.44.17.88.25,1.32-.22.02-.45.04-.67.07Z"/>
  <path class="cls-2" d="M271.86,536.77c.13.13.25.27.38.4-.24.09-.47.21-.72.25-.04,0-.14-.32-.21-.49.19-.06.37-.11.56-.17Z"/>
  <path class="cls-1" d="M522.22,447.46c-1.24-1.15-2.69-1.65-4.41-1.63-2.14.02-4.32.04-6.43-.27-10.74-1.57-21.46-3.22-32.18-4.89-2.37-.37-4.72-.89-7.29-1.38.44-.58.57-.93.82-1.06,6.45-3.55,11.95-8.3,17.31-13.3,2.88-2.69,6.15-5.01,9.42-7.23,2.25-1.53,3.28-2.65,2.89-4.46-.59-2.73-1.86-3.91-4.58-4.2-2.28-.24-3.83.89-5.2,2.58-5.01,6.21-10.74,11.69-17.24,16.34-3.67,2.62-7.53,4.98-11.06,7.78-2.21,1.75-4.29,1.88-6.84,1.23-3.01-.76-6.1-1.18-9.15-1.76-.56-.11-1.11-.3-2.05-.55.72-.6,1.09-.97,1.51-1.24,3.97-2.54,7.91-5.14,11.94-7.58,6.22-3.77,11.15-8.97,16.11-14.16.72-.75,1.56-1.48,2.49-1.92,2.03-.97,4.16-1.75,6.24-2.61,8.05-3.33,15.73-7.41,23.33-11.64.74-.41,1.57-1.45,1.58-2.2,0-1.83-.52-3.61-2.38-4.62-1.76-.95-3.74-.78-5.35.49-.84.66-1.72,1.29-2.6,1.88-6.26,4.22-13.08,7.31-20.21,10.15-.53-1.37-1.06-2.73-1.7-4.38,1.65-1.05,3.21-2.16,4.86-3.08,3.81-2.14,3.91-2.25,3.28-6.58.29-.23.58-.62.95-.74,5.83-1.83,10.61-5.61,15.84-8.55,2.44-1.37,2.67-3,.68-5.12-.8-.85-1.67-1.79-2.7-2.23-2.48-1.06-5.26-1.36-5.84,2.39-.12.75-.73,1.58-1.36,2.05-1.44,1.1-2.97,2.13-4.58,2.97-2.09,1.09-4.33,1.89-6.44,2.94-6.52,3.26-13,6.59-19.51,9.87-6.98,3.52-13.97,7.02-20.97,10.51-4.4,2.2-8.82,4.37-13.28,6.57-.93-.67-1.78-1.27-2.76-1.97.58-.79,1.04-1.51,1.58-2.15,3.05-3.6,6.1-7.21,9.2-10.78,12.34-14.19,24.41-28.59,35.54-43.76,4.39-5.98,8.73-11.98,12.11-18.62,1.23-2.41.89-3.78-1.49-4.97-3.22-1.61-5.61-.62-6.64,2.88-1.17,3.97-3.1,7.47-5.3,10.16-2.88.27-5.14.49-7.62.73.26-.62.39-1.13.66-1.56,3.81-6.1,7.6-12.21,11.47-18.27,1.15-1.8,2.39-3.58,3.8-5.18,1.71-1.96,1.81-3.06-.08-4.82-.47-.44-1.06-.73-1.56-1.13-3.51-2.77-6.38-2.2-8.72,1.61-2.13,3.47-4.27,6.94-6.57,10.3-3.71,5.4-7.55,10.71-11.35,16.06-1.11,1.57-2.21,3.16-3.39,4.67-3.04,3.86-6.17,7.65-9.17,11.54-3.27,4.24-6.41,8.58-9.67,12.82-3.4,4.43-6.86,8.8-10.3,13.19-1.78,2.27-3.5,4.58-5.37,6.78-2.38,2.81-4.93,5.47-7.32,8.28-1.23,1.45-2.2,3.1-3.37,4.6-1.43,1.82-2.92,3.59-4.44,5.34-2.51,2.9-5.53,5.48-7.46,8.72-1.56,2.63-3.77,3.52-5.79,4.56-3.4-1.61-6.54-2.98-9.58-4.56-3.04-1.58-5.96-3.37-8.95-5.04-2.98-1.67-5.96-3.32-8.97-4.94-3.01-1.62-6.07-3.14-9.06-4.8-3.1-1.72-6.12-3.57-9.2-5.32-2.98-1.69-6.02-3.26-8.98-5-2.93-1.73-5.62-4-8.72-5.29-2.98-1.23-5.33-3.79-8.52-4.5-.12.19-.24.38-.36.58l4.48,3.63c-5.33-2.53-10.34-5.49-15.32-8.5-4.96-2.99-9.91-5.99-14.83-9.06-4.94-3.08-9.94-6.03-15.4-8.29.61,1.19,1.39,2.19,2.36,2.91,6.61,4.92,13.23,9.82,19.9,14.65,3.73,2.7,7.48,5.41,11.38,7.86,6.69,4.21,13.51,8.23,20.28,12.34,5.75,3.49,11.52,6.96,17.24,10.5,1.49.92,2.84,2.06,4.25,3.1-.12.21-.25.42-.37.63-6.75-2.51-13.51-5.03-20.19-7.51.26-3.46-.7-5.13-3.57-6.24-.99-.38-2.06-.66-3.11-.81-6.98-.96-13.08-3.82-18.55-8.24-3.63-2.94-7.47-5.64-11.27-8.35-3.81-2.72-7.74-5.27-11.55-7.99-5.03-3.6-9.98-7.3-14.98-10.94-6.33-4.6-12.73-9.11-18.98-13.81-4.63-3.48-9.13-7.15-13.56-10.88-1.82-1.53-3.88-2.3-6.02-3.29-.05.5-.14.72-.08.9.11.3.28.58.48.83,1.8,2.24,3.54,4.46,5.01,7.01,1.55,2.7,4.29,4.77,6.68,6.93,3.83,3.45,7.69,6.88,11.73,10.07,6.57,5.19,13.29,10.19,19.94,15.28.77.59,1.9.9,1.93,2.39-.63-.13-1.05-.17-1.43-.3-5.62-1.83-11.25-3.61-16.84-5.54-3.24-1.12-6.44-2.37-9.57-3.76-3.32-1.48-6.53-3.2-9.79-4.81-3.99-1.97-7.92-4.08-11.99-5.88-4.87-2.15-9.85-4.03-14.79-6-.23-.09-.54.04-1.56.15,4.7,2.97,8.87,5.59,13.03,8.21-.81.39-1.44.39-2.01.21-7.15-2.3-14.28-4.66-21.43-6.93-5.83-1.85-11.67-3.63-17.53-5.38-5.94-1.78-11.93-3.42-17.85-5.26-4.3-1.34-8.51-2.94-12.79-4.37-8.03-2.67-16.08-5.31-24.13-7.94-1.84-.6-3.71-1.08-5.57-1.62-.09.21-.18.42-.26.62.66.46,1.26,1.06,1.99,1.37,3.63,1.57,7.28,3.09,10.95,4.58,5.84,2.37,11.66,4.84,17.57,7.02,7.23,2.67,14.55,5.08,21.83,7.61,5.78,2,11.54,4.06,17.34,6,6.5,2.17,13.07,4.17,19.56,6.36,10.55,3.57,21.08,7.23,31.61,10.87,6.59,2.28,13.07,4.84,19.29,8.02,11.66,5.98,23.51,11.57,35.63,16.58,3.67,1.51,7.4,2.96,10.85,4.89,5.42,3.03,10.66,6.38,15.9,9.71,7.7,4.88,15.37,9.82,23.01,14.8,5.57,3.63,11.09,7.34,16.62,11.05.71.48,1.32,1.13,2.32,2-7.43,1.94-13.85,4.84-20.6,6.81-6.88,2.01-13.68,4.31-20.52,6.45-2.35.73-4.76,1.29-7.12,2.01-6.66,2.03-13.26,4.27-19.97,6.1-6.82,1.86-13.74,3.33-20.63,4.94-1.67.39-3.38.6-5.03,1.02-5.48,1.38-10.98,2.72-16.42,4.25-3.79,1.07-7.51,2.41-11.23,3.69-1.33.46-2.57,1.18-3.91,1.61-2.83.92-5.7,1.71-8.55,2.6-.17.05-.22.47-.43.94,33.79-4.22,66.44-12.53,98.97-21.63-3.06,1.38-5.91,3.09-9.23,3.9-3.49.85-6.86,2.17-10.23,3.44-.58.22-.88,1.18-1.18,1.62-1.37,0-2.81-.33-4.02.06-5.59,1.75-11.09,3.79-16.68,5.55-5.18,1.64-10.44,3.04-15.64,4.61-4.35,1.31-8.67,2.71-12.88,4.04-.05.84-.09,1.34-.18,2.7-.82-2.49-2.24-2.17-3.54-1.8-1.94.55-3.79,1.51-5.76,1.83-2.44.4-4.89.48-6.59,2.64-.17.21-.59.39-.85.34-3.23-.63-5.47,1.99-8.37,2.54-1.26.24-2.37,1.34-3.54,2.04,4.68-.54,9.17-1.43,13.66-2.36,1.99-.41,3.95-.95,5.93-1.4,1.98-.45,3.96-.85,5.95-1.28.05.24.11.47.16.71-1.92.55-3.84,1.1-5.76,1.65-6.68,1.92-13.33,3.98-20.06,5.71-4.17,1.07-8.13,2.59-12.03,4.36-.82.37-1.75.55-2.65.69-1.69.26-3.44.28-5.1.66-9.6,2.19-19.19,4.43-28.78,6.7-2.67.63-5.3,1.47-7.96,2.15-3.63.93-7.27,1.82-10.92,2.69-1.84.44-3.69.89-5.56,1.16-1.22.18-2.52-.14-3.73.08-5.87,1.03-11.69,2.39-17.59,3.18-5.49.73-11.06.9-16.59,1.29-4.81.34-9.63.83-14.45.93-7.49.16-14.98.04-22.4.04-.59,2.98-.48,3.34,1.87,3.48,6.21.35,12.45.92,18.65.68,8.14-.32,16.28-1.13,24.37-2.12,10.24-1.26,20.44-2.83,30.62-4.45,5.19-.82,10.31-2.06,15.47-3.04,4.62-.87,9.28-1.55,13.89-2.48,5.46-1.11,10.86-2.48,16.31-3.6,4.41-.91,8.92-1.4,12.95-3.64.44-.24,1.03-.22,1.55-.31,3.37-.57,6.81-.91,10.11-1.74,6.95-1.75,13.85-3.73,20.76-5.69,5.36-1.52,10.69-3.18,16.05-4.72,3.04-.87,6.12-1.62,9.18-2.43.07.19.15.39.22.58-2.19.93-4.36,1.92-6.58,2.77-3,1.15-6.05,2.17-9.07,3.28-2.5.92-4.94,2.06-7.5,2.78-6.17,1.72-12.15,3.81-17.84,6.83-1.35.72-1.73,1.59-1.89,2.88-3.25-.26-5.21,2.54-8.14,2.8-.39.03-.69,1.05-1.03,1.61,2.29.11,4.36-.04,6.15-.83,5.8-2.55,11.92-3.96,18.02-5.49.49-.12.93-.46,1.4-.69,1.48-.76,2.88-1.9,4.45-2.2,3.39-.65,6.65-1.56,9.77-3.01.38-.18.81-.26,1.22-.38,5.36-1.52,10.73-3,16.08-4.56,4.12-1.2,8.2-2.51,12.31-3.73,4.7-1.4,9.43-2.7,14.12-4.14,4.8-1.48,9.59-3.02,14.35-4.62,4.06-1.37,8.08-2.83,12.1-4.3,3.63-1.33,7.23-2.7,10.84-4.09.9-.35,1.66-.53,1.98.69-1.66.6-6.1,4.19-7.18,6.35-1.32,2.62-3.6,3.9-6.01,5.04-6.66,3.16-13.37,6.22-20.06,9.32-6.77,3.13-13.53,6.28-20.33,9.36-5.08,2.3-10.22,4.47-15.31,6.77-1.26.57-2.76,1.13-3.5,2.17-.99,1.38-2.05,1.94-3.57,1.67-.21.89-.37,1.56-.59,2.46-1.8-.9-3.03-.29-4.48.73-1.91,1.36-4.22,2.16-6.35,3.2.09.25.18.51.26.76,1.9-.4,3.87-.62,5.69-1.26,2.72-.96,5.28-2.34,7.99-3.31,3.32-1.19,6.72-2.14,10.08-3.2.4-.13.79-.33,1.17-.51,3.03-1.47,6.04-3,9.11-4.4.76-.35,1.7-.32,2.56-.46-.93,1.07-2.01,1.68-3.1,2.26-3.19,1.7-6.39,3.36-9.56,5.09-.88.48-1.52,1.2-.69,2.48,6.7-1.74,12.88-5.04,19.8-6.1-.67,1.05-1.38,1.99-2.29,2.68-5.96,4.57-11.95,9.1-17.96,13.6-3.77,2.82-7.64,5.51-11.4,8.35-1.34,1.01-2.31,2.64-3.75,3.37-5.28,2.68-10.05,6.09-14.74,9.66-.93.71-1.99,1.25-2.98,1.9-3.5,2.29-6.99,4.6-10.49,6.9-2.05,1.35-4.32,2.47-6.11,4.1-3.83,3.5-8.81,5.12-12.84,8.29-2.51,1.98-5.37,3.52-8.11,5.22-6.56,4.06-13.1,8.13-19.71,12.11-2.91,1.75-4.91,4.92-8.6,5.49-.55.09-1.02.75-1.52,1.14-1.49,1.14-2.84,2.63-4.51,3.35-3.14,1.35-4.9,4.3-7.65,6.04-.09.06-.01.39-.01.98.96-.32,1.93-.44,2.66-.92,5.32-3.54,11.57-5.44,16.59-9.51.32-.26.74-.41,1.13-.55,1.09-.38,2.25-.6,3.27-1.1,3.16-1.56,6.29-3.16,9.37-4.87,2.51-1.39,4.95-2.91,7.39-4.43,2.21-1.38,4.36-2.87,6.59-4.23,1.81-1.11,3.75-2.02,5.55-3.14,5.07-3.16,10.1-6.38,15.14-9.57,4.59-2.91,9.22-5.76,13.77-8.73,2.86-1.87,5.63-3.88,8.41-5.86,2.43-1.73,4.75-3.6,7.25-5.21,1.52-.98,3.27-1.59,4.93-2.35-.86,1.9-2.36,2.95-4.2,4.04-3.1,1.83-5.78,4.37-8.64,6.62-3.44,2.7-6.89,5.38-10.3,8.12-1.13.91-2.14,1.95-3.21,2.94.15.16.3.32.44.47,5.93-3.38,11.15-7.8,16.8-11.58,5.64-3.79,10.69-8.47,16.84-11.52-1.65,2.86-4.23,4.64-6.77,6.52-2.12,1.57-3.97,3.51-5.97,5.25-2.02,1.77-2.56,5.02-5.67,5.7-.08.02-.12.17-.19.25-.97,1.1-1.94,2.19-2.91,3.29-1.95,2.21-3.89,4.43-5.83,6.64h0c-.46.04-1.05-.11-1.32.12-1.85,1.56-3.71,3.13-5.4,4.85-1.86,1.9-3.45,4.07-5.34,5.93-2.97,2.92-6.11,5.68-9.17,8.51-2.12,1.96-4.19,3.97-6.33,5.89-5.75,5.14-11.55,10.22-17.26,15.4-.97.88-1.72,1.33-3.08,1-1.97-.48-3.79-.3-4.9,1.92-.45.9-1.48,1.52-2.26,2.26-1.4,1.32-2.87,2.58-4.18,3.98-.45.47-.9,1.46-.7,1.93.61,1.4-.25,2.16-1.08,2.69-4.17,2.65-6.59,6.87-9.7,10.46-.97,1.12-2.1,2.1-3.07,3.22-.32.37-.37.97-.72,1.95,1.37-.68,2.3-1.01,3.05-1.56.85-.63,1.48-1.56,2.34-2.19,3.08-2.28,6.25-4.43,9.31-6.73,3.16-2.38,6.25-4.87,9.34-7.33,2.18-1.73,4.37-3.45,6.47-5.28,2.9-2.53,5.69-5.2,8.58-7.75,4.9-4.32,9.91-8.53,14.76-12.92,6.49-5.88,12.9-11.87,19.29-17.86,4.38-4.11,8.72-8.27,13.01-12.47,3.83-3.74,7.55-7.59,11.36-11.36,3.42-3.39,6.91-6.72,10.33-10.11.66-.66.98-1.76,1.72-2.24,3.75-2.4,6.26-6.06,9.4-9.07,7.28-6.97,13.61-14.89,21.34-21.42,1.56-1.32,3.13-2.62,4.7-3.92,3.55-2.94,7.09-5.9,10.67-8.81.89-.73,1.77-.75,2.26.81-1.5.82-3.29,1.42-3.66,3.46-.04.2-.51.35-.79.48-2.91,1.31-4.08,3.55-3.54,6.45-.72.66-1.52,1.07-1.8,1.72-.8,1.83-1.96,1.56-3.32.71-1.6,1.49-3.06,3.02-4.7,4.31-1.43,1.13-2.52,2.24-1.68,4.02-5.23,2.92-9.06,7.39-14.71,9.57.83.69,1.28,1.07,1.89,1.58-2.32,1.66-3.09,4.64-5.89,5.73-.45.18-.57,1.22-.83,1.9-1.28-.05-2.34.39-2.68,1.72-.38,1.51-1.47,2.2-2.63,3.05-1.82,1.33-3.44,2.95-5.45,4.71,1.02.43,1.58.67,2.16.92-.69.84-1.28,1.56-2.06,2.51-1.28-1.78-2.21-1.41-3.19.19-.93,1.51-2.18,2.83-3.43,4.41.61,1.25.41,2.11-1.11,1.93-2.2-.27-3.24.96-4.04,2.48-1.08,2.05-1.58,4.59-4.72,4.38-1.45,2.19-3.84,3.67-4.65,6.38-.31,1.06-1.12,1.96-1.7,2.93-.73-.36-1.2-.59-1.77-.87-3.23,2.88-6.48,5.77-9.58,8.54,0,1.15,1.8,1.59.56,2.71-2.53-.99-2.52-.98-4.32,1.27-.54.67-1.1,1.33-1.73,1.9-3.94,3.59-7.94,7.12-11.85,10.74-2.28,2.11-4.35,4.47-6.69,6.51-1.46,1.27-3.24,2.13-3.13,4.5.02.38-.81.83-1.28,1.2-1.15.9-2.38,1.71-3.47,2.68-.94.83-1.7,1.85-2.59,2.74-.59.6-1.28,1.09-1.88,1.68-1.04,1.02-2.02,2.12-3.09,3.11-1.96,1.82-4.53,3.14-5.24,6.66,1.76-1.24,3.19-2.11,4.46-3.18,6.47-5.44,12.99-10.83,19.33-16.42,7.63-6.74,15.14-13.63,22.62-20.53,5.99-5.52,11.88-11.15,17.79-16.77,3.5-3.32,6.94-6.7,10.41-10.05,4.38-4.25,8.77-8.49,13.14-12.76,3.99-3.89,7.97-7.79,11.91-11.73,2.88-2.88,5.63-5.88,8.53-8.73,1.1-1.08,2.46-1.9,3.83-2.95.88,1.58.76,2.51-.44,3.36-.85.59-1.84,1.23-2.28,2.09-.52,1-.97,1.78-2.06,2.26-.6.26-.94,1.07-1.43,1.6-.56.6-1.14,1.18-1.76,1.71-.47.4-1.14.62-1.51,1.08-1.2,1.48-2.12,3.23-3.48,4.53-2.52,2.4-4.29,5.71-8.12,6.66.12.7.22,1.29.3,1.74-.94.77-2.13,1.33-2.61,2.25-.85,1.61-1.91,2.77-3.58,3.47-.56.23-1.07.7-1.47,1.17-1.58,1.86-3.13,3.71-5.33,4.93-.76.42-1.32,1.34-1.79,2.14-1.35,2.24-3.05,4.06-5.48,5.15-.36.16-.99.43-.98.63.07,1.99-1.96,2.44-2.7,3.82-.84,1.58-2.05,2.73-3.78,2.54-.64,1.24-1.03,2.34-1.7,3.22-.81,1.07-1.79,2.05-2.82,2.92-1.92,1.61-4.28,2.69-5.79,4.81-.05.07-.2.13-.29.11-1.55-.32-2,.94-2.65,1.87-.65.94-1.33,1.87-1.86,2.88-1.17,2.2-3.28,3.17-5.22,4.5-1.87,1.28-2.99,3.59-4.67,5.21-2.55,2.46-6.28,3.77-7.36,7.66-.05.18-.25.36-.43.45-3.76,2.04-6.1,5.55-8.97,8.52-1.93,1.99-4,3.84-5.91,5.84-.87.91-2.23,1.64-2.06,3.89,1.55-1.41,2.72-2.46,3.88-3.53,2.5-2.32,4.96-4.69,7.5-6.97,3.26-2.93,6.63-5.75,9.87-8.71,3.39-3.1,6.67-6.31,10-9.46,7-6.63,14.05-13.2,20.98-19.89,5.78-5.59,11.42-11.33,17.11-17.01,5.69-5.68,11.44-11.28,17.01-17.07,7.29-7.58,14.4-15.33,21.66-22.94.99-1.04,2.33-1.87,3.65-2.46,3.07-1.36,6.23-2.5,9.35-3.75.29-.12.63-.31.77-.56.82-1.46,2.27-1.37,3.63-1.67,2.03-.45,4.32-.49,5.55-2.7.16-.28.72-.34,1.1-.49,2.37-.98,4.76-1.9,7.09-2.95,2.71-1.21,5.39-2.49,8.04-3.82,4.09-2.06,8.11-4.25,12.2-6.3,4.13-2.06,8.41-3.82,12.44-6.04,9.49-5.23,18.9-10.62,28.28-16.06,1.55-.9,2.76-.89,4.14.07,1.5,1.04,2.98,2.12,4.54,3.07,8.26,5.02,16.51,10.05,24.83,14.97,5.67,3.36,11.71,5.85,18.23,7.01,1.05.19,2.11.54,3.16.52,2.57-.03,4.18-1.76,4.14-4.23-.03-1.76-1.95-3.33-4.14-3.68-2.19-.35-4.36-.87-6.52-1.41-1.14-.29-2.21-1-3.35-1.11-4.47-.44-8.08-2.76-11.72-5.04-1.36-.85-2.57-2.28-4.03-2.59-3.93-.85-6.71-3.78-10.27-5.22-.26-.11-.37-.6-.81-1.36.99.27,1.49.35,1.96.53,6.09,2.38,12.15,4.82,18.25,7.16,13.05,5,26.63,7.6,40.54,8.43,7.41.44,14.63-.14,21.61-3.41,3.08-1.44,4.57-3.71,5.92-6.28,1.13-2.14-.08-4.02-2.54-4.44-1.05-.18-2.17-.29-3.21-.14-3.3.46-6.41-.42-9.51-1.25-1.43-.38-2.73-1.3-4.17-1.62-7.74-1.7-14.49-5.84-21.7-8.82-6.33-2.62-12.37-5.95-18.52-9.02-3.1-1.55-6.14-3.22-9.51-4.99,2.37-1.6,4.5-2.84,6.42-4.35,3-2.37,6.02-4,9.95-2.19.93.43,2.11.31,3.16.5,6.45,1.13,12.92,2.19,19.35,3.43,9.05,1.76,18.34,2.19,27.22,4.93.31.09.63.17.95.2,1.83.14,3.41-.79,4.16-2.42.74-1.62.36-3.35-1.05-4.66ZM266.46,479.24s-.09-.25-.08-.25c.32-.13.65-.24.98-.35.04.14.08.29.11.43-.34.06-.67.13-1.01.17ZM276.79,480.14q-.19-1.95,1.38-2.7c-.49.96-.81,1.59-1.38,2.7ZM333.12,451.26c2.51-1.52,4.37-1.93,6.35.49-2.15-.17-3.97-.31-6.35-.49ZM268.18,540.6c-.68.47-1.52.71-2.3,1.03.32-.55.57-1.17,1.02-1.59.73-.68,1.62-1.2,2.52-1.84.62,1.33-.48,1.87-1.25,2.4ZM271.52,537.42s-.14-.32-.21-.49c.19-.06.37-.11.56-.17.13.13.25.27.38.4-.24.09-.47.21-.72.25ZM246.1,568.61c1.45-.34,1.45-.3,1.54,1.34-.64-.57-1.09-.96-1.54-1.34ZM282.17,535.88v-1.33c.14-.02.28-.04.42-.06.08.44.17.88.25,1.32-.22.02-.45.04-.67.07ZM300.1,501.58c1.48-1.58,4.34-2.84,7.07-3.17-2.29.94-4.09,2.92-7.07,3.17ZM289.43,541.96c-.65-1.65.51-2.46,1.03-3.46.56.18,1.12.36,2.07.66-1.16,1.05-2.03,1.84-3.09,2.8ZM296.33,534.77s-.48-.22-.47-.3c.05-.37.19-.72.36-1.28.42.35.83.62.8.68-.17.34-.42.63-.69.9ZM455.68,419.27c-1.71,2.33-4.45,3.21-6.68,4.79-2.43,1.73-5.04,3.23-7.58,4.81-2.37,1.47-4.73,3-7.32,4-.16-.39-.32-.77-.47-1.16,7.17-4.45,14.26-9.03,22.06-12.44ZM428.61,417.83c-5.89,3.32-11.78,6.64-17.67,9.96,1.31-2.88,12.78-9.4,17.67-9.96ZM418.64,442.41c-.57,0-.96.09-1.27-.04-.17-.07-.18-.5-.27-.77.36-.06.73-.21,1.06-.14.17.03.25.47.47.95ZM394.61,416.85c5.09-5.94,10.12-11.94,14.99-18.06,1.82-2.29,3.75-4.26,6.27-5.82,1.74-1.07,3.64-2.38,3.05-5.14-.13-.59.73-1.45,1.24-2.11,6.92-8.89,13.84-17.77,20.81-26.62,1.25-1.59,2.71-3.01,4.08-4.51.22.17.43.35.65.52-3.57,5.07-7.19,10.1-10.7,15.22-2.22,3.24-5.11,6.04-6.46,9.86-.2.58-.63,1.21-1.13,1.54-2.54,1.68-3.46,4.52-5.1,6.84-1.36,1.92-2.91,3.7-4.27,5.62-2.54,3.59-5.01,7.24-7.51,10.85-.3.44-.6.89-.96,1.28-1.81,1.9-3.75,3.68-5.42,5.7-1.56,1.89-3.15,3.87-4.15,6.07-1.21,2.66-3.36,3.35-5.97,4.02-.83-1.95-.92-3.52.58-5.28ZM402.67,451.3c-1.02.95-1.77.91-2.6-.25,1-.9,1.76-.98,2.6.25ZM390.23,456.45c.32-.16.76-.08,1.14-.11.12.29.23.58.35.87-6.81,3.94-13.83,7.52-20.69,11.37-.19-.22-.39-.44-.58-.67.65-.71,1.16-1.67,1.96-2.1,5.9-3.19,11.86-6.27,17.82-9.37ZM358.7,419.91c.05-.23.09-.45.14-.68,1.81.53,3.66.99,5.43,1.62,3.62,1.29,7.21,2.67,10.8,4.05.79.3,1.59.67,2.27,1.17.35.25.43.87.63,1.32-.53.23-1.05.58-1.61.66-.37.05-.8-.26-1.18-.44-5.5-2.56-10.99-5.13-16.49-7.7ZM348.16,446.93c.22.18.45.36.78.64-.29.26-.49.44-.69.62-.14-.26-.34-.51-.4-.78-.03-.12.2-.31.31-.47ZM345.04,447.36c.2-.05.48.21.81.38-.23.35-.39.59-.55.83-.28-.2-.57-.4-.85-.6.19-.22.36-.55.59-.61ZM334.88,492.86c.71.58,1.27,1.04,2.14,1.75-2.09.51-3.89.95-5.69,1.39l-.35-.79c1.29-.78,2.57-1.55,3.9-2.35ZM331.17,507.25c-1.34,2.54-3.74,4.05-5.46,6.2-1.18,1.48-2.88,2.05-4.94,2.18,2.11-2.31,4.19-4.66,6.35-6.93,4.05-4.26,8.47-8.23,12.08-12.83,1.95-2.48,4.43-4.3,6.39-6.68.5-.61,1.34-.93,2.02-1.39.16.18.32.36.48.54-1.01,1.06-2.03,2.12-3.03,3.19-.43.47-1,.92-1.19,1.48-.5,1.47-1.08,2.65-2.56,3.58-2.76,1.73-3.83,5.22-6.9,6.86-1.38.74-2.47,2.35-3.24,3.81ZM333.8,510.31c.89-1.37,1.28-2.19,1.86-2.83,5.66-6.29,11.35-12.55,17.02-18.84.94-1.04,2.04-2.02,2.65-3.23,1.26-2.5,3.33-3.66,5.8-4.71,3.45-1.46,6.68-3.42,10.03-5.12,4-2.05,8.05-4.01,12.03-6.09,2.73-1.43,5.35-3.09,8.09-4.5,2.27-1.17,4.63-2.21,7.01-3.12.55-.21,1.5.15,2.08.53,3.4,2.22,6.74,4.52,10.75,7.24-25.29,14.79-50.64,28.08-77.32,40.69ZM420.66,462.43c-3.86-1.99-7.68-4.05-11.58-6.11.67-1.3,1.58-1.69,2.73-1.2,4.01,1.72,8.01,3.5,12,5.27.16.07.24.33.48.68-.95,1.13-1.92,2.24-3.64,1.35ZM424.93,438.25c-.12-.1-.22-.23-.3-.38-.09-.15-.16-.31-.25-.45.17-.05.34-.14.51-.19.1-.03.2-.04.29-.02.2.04.35.36.6.64-.38.19-.76.48-.85.41ZM425.84,447.01c.54-.24,1.04-.65,1.28-.53,3.52,1.8,7,3.66,10.48,5.54.02.01.04.04.05.09.03.12,0,.35.01.5,0,0,0,0,0,0h0c-1.38.03-5.88-1.97-9.75-4.28-.72-.43-1.41-.87-2.06-1.31ZM486.75,476.33c1.07.45,2.15.91,3.22,1.36l-.27.77c-1.13-.35-2.26-.7-3.39-1.05.15-.36.3-.72.44-1.08ZM453.9,473.12c10.31,4.24,20.78,8.02,31.63,10.62.99.24,1.97.55,3.47.98-9.64,1.63-47.7-10.66-59.72-18.44,1.79-1.71,3.53-2.17,5.97-1.07,6.15,2.79,12.4,5.33,18.64,7.9ZM444.79,456.84c.09-.2.19-.39.28-.59,2.56.53,4.78,1.86,6.96,3.29.03.02-.14.33-.34.8-2.31-1.17-4.6-2.34-6.89-3.51ZM445.23,447.95c-.36.2-1.06.04-1.49-.18-3.32-1.7-6.61-3.44-9.9-5.2-.16-.08-.21-.36-.38-.66,1.25-1.93,3.32-2.35,5.27-2.04,4.8.76,9.54,1.84,15.05,2.95-3.2,1.94-5.84,3.58-8.55,5.13Z"/>
</svg>