<?xml version="1.0" encoding="UTF-8"?>
<svg id="Layer_1" data-name="Layer 1" xmlns="http://www.w3.org/2000/svg" viewBox="0 0 595.28 841.89">
  <defs>
    <style>
      .cls-1 {
        fill: #000;
        stroke-width: 0px;
      }
    </style>
  </defs>
  <path class="cls-1" d="M569.08,259.95c-.19-10.2-.66-20.42-2.88-30.46-1.52-6.87-3.1-13.64-6.18-20.09-5.15-10.79-13.07-18.75-23.63-23.93-10.7-5.25-22.05-5.55-33.48-2.5-3.48.93-6.85,2.24-10.58,3.47-.4-4.61-1.94-8.78-3.5-13-3.65-9.85-7.88-19.29-14.92-27.27-3.4-3.85-7.34-6.9-12.05-8.93-7.49-3.22-15.2-2.97-22.99-1.4-.97.2-1.95.38-2.92.56-.09-.25-.18-.49-.27-.74,1.18-.93,2.38-1.83,3.53-2.8,5.55-4.66,11.15-9.26,16.6-14.03,2.88-2.53,5.36-5.53,8.26-8.04,4.24-3.67,7.08-8.36,9.89-13.06.61-1.02.6-2.92.06-4.02-.97-1.98-2.64-3.42-5.12-3.67-4.14-.43-8.11.19-12.03,1.44-.88.28-1.78.5-2.67.75-.1-.2-.2-.39-.3-.59.62-.53,1.22-1.09,1.87-1.58,3.51-2.63,7.13-5.12,10.51-7.9,3.39-2.77,6.61-5.75,9.78-8.78,2.54-2.42,4.8-5.12,7.33-7.55,2.5-2.41,3.7-5.28.15-8.04-.13-.1-.12-.39-.21-.75.43-.37.89-.82,1.41-1.21,4.48-3.35,8.97-6.71,13.48-10.02,1.83-1.34,3.72-2.59,5.86-4.07.9-5.64-2.97-8.07-7.29-6.52-2.15.77-4.54.86-6.75,1.5-9.71,2.8-19.41,5.62-29.06,8.6-2.13.66-4.06,1.58-6.36.74-.65-.24-1.53-.05-2.25.16-7.6,2.17-15.17,4.45-22.79,6.55-2.07.57-4.28.63-6.43.95-.76.11-1.53.18-2.26.41-8.95,2.78-17.53,6.46-25.86,10.72-4.6,2.35-9.13,4.84-13.75,7.17-7.26,3.65-14.64,7.06-21.84,10.84-16.17,8.49-31.54,18.27-46.42,28.85-10.22,7.27-20.04,15.04-29.62,23.13-4.69,3.96-8.95,8.49-14.42,11.48-.25.14-.36.52-.52.76,1.4,2.82,4.44,5.16,6.51,4.76,3-.58,6.03-1.16,8.91-2.16,3.42-1.18,6.67-2.83,10.02-4.21,2.29-.94,4.4-2.43,7.13-2.22-1.97,1.68-4,3.28-6.17,4.62-4.38,2.69-8.84,5.25-13.27,7.87-1.09.64-2.03,1.36-1.65,2.87.67,2.7,5.01,4.77,7.45,3.49,5.15-2.71,10.4-5.25,15.4-8.21,15.14-8.95,31.01-16.49,46.7-24.39,6.38-3.21,12.74-6.45,19.09-9.72,6.05-3.12,12.06-6.3,18.1-9.44,6.43-3.35,12.87-6.67,19.29-10.02,1.63-.85,3.19-1.87,4.84-2.69,3.92-1.95,7.9-3.76,11.78-5.77,1.24-.64,2.15-1.92,3.38-2.57,2.79-1.46,5.71-2.69,8.55-4.05,2.16-1.03,4.56-1.8,6.4-3.25,3.39-2.66,7.21-4.53,10.89-6.64,5.41-3.09,10.86-6.13,16.4-9,1.85-.96,3.79-2.12,6.2-1.79-.11.47-.08.88-.27,1.06-4.78,4.52-9.43,9.2-14.43,13.45-5.1,4.33-10.47,8.36-15.89,12.28-5.42,3.92-10.89,7.82-16.64,11.22-4.89,2.9-10.25,5-15.33,7.61-6.93,3.56-13.79,7.25-20.66,10.94-2.41,1.3-4.74,2.74-7.09,4.15-7.55,4.49-15.14,8.92-22.61,13.53-4.94,3.05-9.72,6.37-14.57,9.59-3.56,2.36-7.1,4.77-10.66,7.13-6.22,4.13-12.43,8.28-18.7,12.34-1.46.95-3.2,1.41-3.51,3.56-.08.58-.98,1.09-1.58,1.53-3.36,2.47-6.75,4.91-10.14,7.33-.55.39-1.18.67-1.87,1.06-.09-.52-.21-.78-.14-.92,2.71-5.01,5.38-10.04,8.18-14.99,1.88-3.32.2-5.87-2.64-6.07-1.19-.09-2.49-.24-3.58.12-2.49.82-5.13,1.57-7.28,3-7.31,4.85-14.48,9.92-21.62,15.02-3.48,2.49-6.77,5.26-10.17,7.87-2.88,2.21-4.5,1.63-5.35-1.81-.63-2.56-1.22-5.14-1.95-7.67-4.57-15.84-9.24-31.65-15.6-46.89-2.75-6.59-5.73-13.09-9.93-18.92-2.61-3.62-5.8-6.62-9.73-8.74-8.6-4.65-17.61-4.11-26.58-1.53-12.01,3.46-21.26,11.33-29.72,20.02-7.36,7.56-13.19,16.4-18.94,25.22-4.78,7.34-9.08,14.97-12.96,22.82-1.4,2.83-2.79,5.67-4.18,8.49-1.99-.41-2.86-1.8-3.59-3.3-2.08-4.25-5.69-5.7-10.1-5.11-3.6.48-7.01,1.71-10.18,3.61-4.87,2.91-8.96,6.71-12.76,10.84-5.67,6.16-10.78,12.74-14.5,20.3-1.64,3.34-3.16,6.75-4.79,10.09-3.19,6.56-5.26,13.52-7.08,20.52-1.32,5.07-1.88,10.34-2.74,15.53-.98,5.94-2.21,11.86-2.78,17.84-.87,9.29-1.63,18.6-.78,27.96.43,4.78.38,9.6.71,14.39.18,2.61.71,5.2,1.04,7.81.27,2.17.35,4.36.73,6.51,1.11,6.37,2.32,12.72,3.51,19.07.2,1.07.43,2.15.78,3.18.61,1.76,1.44,3.46,1.97,5.24,1.96,6.53,4.15,12.97,7.69,18.85,1.69,2.81,3.36,5.69,5.48,8.16,2.37,2.76,7.67,3.03,10.54.78,1.78-1.4,3.47-3.02,4.84-4.82,1.59-2.07,2.82-4.43,4.17-6.69.7-1.18,1.47-2.3,3.03-2.15,2.54.25,3.56-1.43,4.22-3.36,2.13-6.23,4.15-12.5,6.25-18.74.37-1.11.92-2.16,1.33-3.13.67,0,1-.05,1.31,0,3.37.59,4.6-.53,4.72-3.9.15-4.16.5-8.32.83-12.47.17-2.14.51-4.28.75-6.22.64-.22.85-.34,1.05-.34,4.16-.05,5.27-1.4,4.76-5.61-.12-.97-.03-1.98.07-2.95.48-4.48.98-8.96,1.5-13.43.81-6.98,1.74-13.94,2.45-20.92.8-7.86,1.68-15.72,2.03-23.6.33-7.34-.1-14.72-.02-22.07.13-11.76-.33-23.49-1.47-35.2-.15-1.52-.43-3.04-.49-4.57-.05-1.49-.33-3.18.23-4.46,3-6.83,5.93-13.73,9.47-20.28,3.59-6.65,7.8-12.97,11.87-19.35,7.25-11.37,15.75-21.64,26.41-30.05,7.43-5.86,15.69-9.6,25.11-10.81,8.24-1.06,14.33,2.44,18.9,8.92,4.33,6.14,7.47,12.96,9.97,20.01,4.01,11.29,7.86,22.63,11.49,34.05,2.1,6.59,3.63,13.37,5.46,20.05.51,1.85.24,3.23-1.24,4.69-6.39,6.33-12.72,12.72-18.92,19.24-5.2,5.48-10.27,11.08-15.22,16.78-4.23,4.88-8.29,9.93-12.27,15.02-3.51,4.48-6.87,9.08-10.18,13.71-3.69,5.17-7.45,10.32-10.81,15.7-4.06,6.51-7.76,13.24-11.56,19.9-4.24,7.43-8.3,14.94-11.1,23.1-1.99,5.8-4.67,11.36-6.73,17.14-3.28,9.16-6.49,18.35-9.17,27.71-1.84,6.4-3.8,12.78-5.86,19.11-3.26,10.01-6.62,19.99-10.01,29.95-2.25,6.63-4.62,13.21-6.95,19.81-2.41,6.84-4.83,13.68-7.28,20.51-.47,1.3-.3,2.37.74,3.27,2.6,2.24,8.28,1.48,10.06-1.41.69-1.11,1.23-2.34,1.63-3.59,1.28-3.96,2.54-7.94,3.65-11.95,1.62-5.82,3.11-11.67,4.63-17.52,1.18-4.56,2.27-9.15,3.48-13.7,1.3-4.87,2.68-9.73,4.04-14.58.4-1.42.85-2.83,1.42-4.72,1.58,1.98.97,3.67.72,5.15-.81,4.74-.56,9.46.21,14.12.44,2.64.1,4.94-.85,7.35-3.61,9.19-6.73,18.55-9.22,28.1-.22.83-.03,2.03.44,2.73,1.17,1.74,6.33,2.62,7.91,1.23,1.62-1.43,3.46-3.08,4.12-5,1.69-4.87,3.6-9.55,6.54-13.54,1.88-.42,3.63-.8,5.18-1.14.76,1.97,1.51,3.94,2.41,6.29-.79,1.69-1.75,3.9-2.84,6.05-.84,1.67-1.31,3.31-.43,4.54-1.02.85-2.09,1.32-2.46,2.12-1.52,3.26-3.07,6.55-4.16,9.97-1.14,3.56-2.15,7.13-3.71,10.58-1.84,4.07-3.12,8.39-4.57,12.63-2.52,7.38-5.1,14.73-7.42,22.17-2.1,6.71-3.91,13.51-5.83,20.28-2.04,7.19-4.13,14.36-6.08,21.57-1.21,4.47-2.66,8.84-4.85,12.92-.72,1.34-1.49,2.73-2.52,3.83-2.04,2.19-3.16,2.28-5.85.97-3.55-1.74-5.69-4.78-7.37-8.16-3.97-7.95-6.11-16.49-7.32-25.22-1.19-8.59-2.08-17.24-2.77-25.89-.76-9.52-1.5-19.07-1.59-28.61-.1-10.89-.48-21.75-1.53-32.58-.19-1.95-.16-3.94-.11-5.9.1-3.73-1.09-6.15-5.2-5.73-.17.02-.36-.19-.83-.47.47-6.27-.65-12.76,1.14-19.13.46-1.63.21-3.07-1.21-4.13-2-1.48-6.76-.52-7.99,1.66-1.41,2.47-2.71,5.01-4.08,7.51-.27.48-.64.91-.97,1.36-.24-.07-.48-.14-.72-.21.33-5.32.64-10.64,1-15.95.07-.98.45-1.95.43-2.91-.07-2.64-1.23-3.9-3.82-3.94-3.88-.07-5.55,1.05-6.39,4.31-.59,2.32-1.61,4.45-3.7,5.91-.25-.36-.51-.57-.47-.69.22-.71.48-1.41.8-2.08.88-1.89.68-3.11-.78-4.41-2.32-2.07-7.33-.48-8.06,2.54-.26,1.06-.47,2.15-.87,3.16-2.88,7.36-6.16,14.58-8.61,22.07-2.87,8.75-5.4,17.65-7.38,26.63-1.87,8.46-2.89,17.11-4.18,25.69-.63,4.22-1.18,8.46-1.48,12.72-.37,5.22-.58,10.46-.6,15.69-.02,5.14.17,10.28.47,15.41.24,4.16.56,8.34,1.21,12.46,1.27,8.02,2.57,16.05,4.28,23.98,1.11,5.13,2.73,10.2,4.59,15.12,1.54,4.08,4.18,7.77,5.58,11.89,1.75,5.15,2.86,10.54,3.99,15.88.98,4.61,1.53,9.31,2.38,13.95,1.75,9.5,4.9,18.72,5.59,28.44.13,1.86,1.4,2.88,3.36,2.91.98.01,1.98-.18,2.93-.42,2.93-.74,3.9-2.72,3.38-5.74-.77-4.42-1.43-8.87-1.82-13.33-.46-5.14-.63-10.31-.84-15.47-.11-2.79-.02-5.59-.02-8.33,5.06-.35,6.83-2.57,5.56-6.91-1.1-3.76-1.33-7.55-1.19-11.41.27-7.36.51-14.72.77-22.08.2-5.61.37-11.21.6-16.82.36-8.68.89-17.35,1.12-26.04.32-11.65.33-23.31.65-34.96.39-14.29.89-28.57,1.52-42.85.27-6.02,3.19-11.25,5.79-16.6.36.6.56,1.18.54,1.76-.06,1.86-.17,3.73-.3,5.59-.3,4.28-.35,8.59-1,12.82-.77,4.98-2.08,9.88-3.12,14.82-1.13,5.36-2,10.73-1.9,16.27.14,7.45-.78,14.87-.16,22.35.39,4.78-.1,9.63-.09,14.45.03,11.32.16,22.64.2,33.96.03,7.7.29,15.38,1.46,23,.55,3.58,2.35,4.97,6.22,4.69,3.1-.22,4.75-2.09,4.53-5.58-.19-3.06-.74-6.1-1.09-9.15-1.49-13.01-2.77-26.04-2.32-39.15.29-8.56,1.07-17.11,1.52-25.66.62-11.75,1.12-23.5,1.69-35.25.03-.63.2-1.26.31-1.89.25-.02.5-.05.75-.07.12.81.35,1.61.36,2.42.11,6.91.08,13.83.3,20.74.29,9,.72,18.01,1.21,27,.58,10.56,1.94,21.02,4.2,31.36,1.67,7.65,3.77,15.16,7.69,22.02,2.82,4.94,7.07,8.29,12.65,9.14,8.32,1.27,15.46-4.6,17.52-10.62,2.55-7.47,5.02-14.97,7.21-22.54,2.5-8.63,4.61-17.37,6.98-26.03,1.74-6.35,3.55-12.68,5.48-18.98,1.99-6.5,4.09-12.97,6.3-19.4,1.91-5.58,4.08-11.07,6.06-16.62,1.53-4.3,2.99-8.62,5.27-12.6.75-1.32,1.4-2.7,1.98-4.11,1.18-2.84,2.11-5.79,3.44-8.55,2.6-5.41,5.4-10.72,8.1-16.08.97-1.93,1.79-3.95,2.87-5.82,1.52-2.62,3.28-5.1,4.8-7.73.53-.92.59-2.1.97-3.12.59-1.59.87-3.53,1.97-4.64,3.04-3.09,4.69-7.04,7.09-10.51.3-.43.32-1.05.48-1.58-1.57,1.24-2.98,2.51-4,4.04-2.72,4.1-5.26,8.32-7.93,12.45-.24.38-.92.48-1.54.78,0-.58-.07-.83,0-1,3.64-8.09,7.14-16.23,11-24.21,1.85-3.83,3.29-7.91,6.17-11.22,1.04-1.19,1.48-2.92,2.14-4.43.66-1.5,1.13-3.1,1.89-4.54,1.38-2.61,2.92-5.13,4.38-7.7.76-1.32,1.48-2.66,2.24-3.99,1.92-3.4,3.88-6.78,5.77-10.2,1.75-3.16,3.32-6.42,5.16-9.53,3.85-6.5,7.86-12.9,11.74-19.39,3.71-6.2,6.78-12.76,10.95-18.71,2.37-3.38,4.27-7.05,6.17-10.75,2.21-4.29,5.55-7.99,7.43-12.62.27,3.29.28,6.52.27,9.75,0,3.19-.02,6.38,0,9.56.02,3.29.14,6.58.12,9.87-.02,3.18-.14,6.37-.24,9.55-.11,3.28-.31,6.55-.35,9.83-.03,3.17-.05,6.35.19,9.5.24,3.11-1.36,6.21-.12,9.93,1.49-4.89,3.04-9.1,4.05-13.44,1.79-7.7,2.62-15.56,2.79-23.47.14-7.03.21-14.06.25-21.1.04-5.93.07-11.87-.06-17.8-.06-2.64.43-4.98,1.92-7.17,1.36-1.99,2.64-4.04,3.83-6.13,2.61-4.56,5.15-9.16,7.73-13.74,2.37-4.21,4.7-8.44,7.16-12.6,1.84-3.11,3.47-6.46,5.87-9.1,3.39-3.73,7.24-7.07,11.16-10.26,6.47-5.28,13.05-10.41,20.28-14.67,4.68-2.75,9.56-5.03,14.72-6.58,7.56-2.28,10.89-.26,12.55,7.55.84,3.95,1.48,8,1.66,12.03.66,14.62-1.33,29.01-4.97,43.1-4.24,16.38-9.04,32.62-13.65,48.9-1.35,4.75-2.81,9.46-4.37,14.14-1.84,5.51-3.86,10.96-5.8,16.43-.82,2.31-1.66,4.62-2.59,7.23-2.75-2.03-5.21-3.67-7.47-5.55-2.25-1.88-4.34-3.96-6.4-6.05-2.16-2.18-4.25-4.43-6.28-6.73-1.93-2.19-3.88-4.35-5.61-6.75-1.59-2.21-2.41-5.2-5.47-7.18.93,4.56,2.68,8,5.07,11.09,3.83,4.96,8.5,9.2,12.17,14.31,1.33,1.85,2.92,3.55,4.6,5.09,2.47,2.25,5.12,4.29,7.8,6.5-3.84,9.8-7.63,19.49-11.27,28.77-4.83,1.67-9.18,3.19-13.53,4.69-15.65,5.38-30.26,13-44.54,21.23-5.03,2.9-9.73,6.36-14.67,9.42-7.84,4.86-14.84,10.82-21.8,16.79-3.73,3.2-6.97,6.98-10.57,10.34-5.38,5-9.05,11.28-13.13,17.25-1.5,2.19-.77,4.64,1.66,5.77,1.45.67,3.15.99,4.75,1.07,1.51.07,3.04-.4,4.57-.58.66-.08,1.33-.01,2.48-.01-.76.9-1.07,1.34-1.44,1.71-2.19,2.16-4.43,4.26-6.57,6.47-1.5,1.55-1.67,3.4-.65,4.76,1.67,2.22,5.45,3,7.95,1.64,2.26-1.23,4.51-2.13,7.21-1.16,1.03.37,2.44.22,3.52-.16,6.53-2.26,13.06-4.56,19.52-7.03,4.2-1.61,8.33-3.41,12.4-5.33,5.64-2.67,11.18-5.53,16.77-8.31,3.14-1.56,6.29-3.11,9.45-4.64.62-.3,1.32-.45,2.4-.81-.26.85-.33,1.26-.5,1.6-1.52,3.02-3.12,6.02-4.59,9.06-1.24,2.57-2.21,5.27-3.56,7.78-2.67,4.99-5.49,9.89-8.29,14.81-6.29,11.08-12.45,22.23-18.96,33.18-4.65,7.82-9.92,15.27-14.66,23.04-4.84,7.93-10.52,15.15-17.21,21.55-2.28,2.19-4.81,4.16-7.44,5.92-1.92,1.28-4.26,1.35-6.28.06-3.41-2.19-5.91-5.17-7.38-9.01-1.91-5-2.48-10.2-2.75-15.48-.07-1.4-.46-2.78-.72-4.17-.29-1.6-.79-3.19-.85-4.8-.05-1.56-.55-2.58-2.08-2.88-1.12-.22-2.21.97-2.41,2.59-.3,2.51-.72,5.03-.74,7.55-.07,8.09,1.06,15.86,4.87,23.25,5.4,10.47,15.75,12,24.45,6.24,7.27-4.81,12.75-11.71,18.09-18.56,1.27-1.62,1.91-3.72,3.07-5.45,3.83-5.76,7.86-11.38,11.61-17.18,3.45-5.34,6.7-10.82,9.92-16.3,2.61-4.44,5.08-8.97,7.55-13.49,6.57-12.04,13.11-24.11,19.65-36.17.36-.67.55-1.44.91-2.12,1.74-3.26,3.02-6.8,5.36-9.84,11.25,3.29,19.9,9.84,26.75,18.71-3.59,5.98-7.13,11.66-10.46,17.46-3.01,5.24-5.98,10.51-8.59,15.94-1.8,3.74-3.18,7.74-2.99,12.04.25,5.8,1.61,6.92,7.25,6.03.19-.03.35-.23.67-.46-.11-1.63-.36-3.36-.31-5.08.1-4.13,1.22-8.07,3.07-11.71,3.45-6.74,7.09-13.39,10.76-20.02,1.46-2.65,3.18-5.15,5.01-8.07.84,1.36,1.56,2.31,2.06,3.36,2.21,4.66,4.52,9.28,6.49,14.05,4.03,9.71,6.21,19.91,7.48,30.31,1.31,10.75,1.21,21.52.28,32.28-.15,1.69-.68,3.48-1.5,4.96-2.2,3.92-4.68,7.69-7,11.54-5,8.27-10.01,16.53-14.93,24.85-3.4,5.76-6.66,11.61-9.96,17.43-1.18,2.09-2.27,4.24-3.42,6.35-1.77,3.28-3.64,6.51-5.32,9.83-1.83,3.61-3.39,7.34-5.24,10.94-2.9,5.66-6.09,11.17-8.89,16.87-3.43,6.99-6.7,14.07-9.85,21.19-5.03,11.34-9.97,22.73-14.82,34.15-1.37,3.21-3.2,5.77-6.09,7.86-5.78,4.18-11.39,8.61-16.89,13.15-2.78,2.3-5.21,5.04-7.72,7.66-1.38,1.44-1.38,2.94-.23,3.99,1.53,1.4,5.77,2.12,7.52,1.16,2.6-1.42,5.13-2.95,7.71-4.39.6-.33,1.3-.48,2.49-.9-1.98,3.54-4.42,5.87-6.58,8.46-3.72,4.44-10.7,4.9-15.78,1.1-3.99-2.99-6.7-6.99-9.17-11.13-4.52-7.56-7.93-15.68-11.22-23.84-2.92-7.24-5.6-14.61-10.71-20.72-2.17-2.6-4.84-4.4-8.13-5.31-6.65-1.84-12.58-.17-18.14,3.53-.87.58-1.73,1.18-2.6,1.78-.2-.11-.4-.22-.59-.33.29-1.09.49-2.22.89-3.27.78-2.04,1.8-4,2.49-6.07,1.45-4.36,2.45-8.9,4.18-13.14,3.18-7.79,5.62-15.83,8.57-23.68,2.39-6.37,5.03-12.63,6.82-19.23,1.34-4.94,3.6-9.62,5.1-14.53,1.41-4.64,3.11-9.13,5.17-13.5.28-.59.48-1.23.67-1.86,1.56-5.38,2.91-10.82,5.98-15.64.55-.87.61-2.09.73-3.17.06-.49-.14-1.12-.44-1.52-1.99-2.7-7.9-1.95-9.18,1.14-1.29,3.15-2.53,6.32-3.83,9.46-.2.47-.65.85-.98,1.26-.26-1.28-.04-2.33.12-3.39.61-4.13,1.31-8.25,1.76-12.4.37-3.41-.78-4.61-4.07-5.08-1.97-.28-3.83.09-5.35,1.19-2.84,2.05-5.84,4.05-8.14,6.64-3.86,4.34-7.5,8.94-10.71,13.78-4.4,6.64-8.39,13.55-12.23,20.58-5.5,10.08-9.75,20.62-13.6,31.37-1.74,4.86-3.2,9.81-4.95,14.66-2.63,7.26-4.53,14.71-5.77,22.31-1.01,6.18-1.61,12.43-2.59,18.61-.64,4-1.7,7.93-2.46,11.91-.97,5.08-1.83,10.18-2.74,15.27-2.06,11.49-3.68,23.02-3.16,34.75.1,2.29.07,4.65-.34,6.89-.34,1.85.21,2.77,1.61,3.84,1.8,1.38,3.26,3.09,2.77,5.77-.33,1.83.63,2.9,2.5,3.07.97.09,1.97-.09,2.96-.15,2.49-.15,4-1.44,4.63-3.85.42-1.59.89-3.18,1.49-4.71,1.09-2.8,2.29-5.56,3.45-8.34.23.08.46.16.7.24-.22,1.04-.39,2.1-.68,3.12-.51,1.79-1.21,3.54-1.63,5.36-.68,2.89-1.51,5.79-1.7,8.72-.3,4.47,2.22,6.61,5.91,6.82,3.94.22,7.06-1.63,8.89-5.14,1-1.93,1.78-4.04,2.26-6.16,1.01-4.5,1.85-9.04,2.6-13.59,1.43-8.66,2.64-17.35,4.12-26,1.35-7.89,3.13-15.7,4.34-23.6.57-3.74,1.83-6.84,4.3-9.7,2.85-3.31,6.01-6.15,9.98-7.93,5.34-2.39,8.87-1.45,12.28,2.82,2.11,2.64,4,5.56,5.41,8.62,3.12,6.78,5.86,13.74,8.77,20.62,3.56,8.44,7.87,16.4,13.54,23.68,6.66,8.55,20.62,11.77,31.15,1.88,5.56-5.21,9.66-11.36,12.54-18.36.87-2.11,2.16-3.75,3.97-5.13,5.68-4.32,11.38-8.64,16.92-13.15,5.27-4.29,10.35-8.83,15.53-13.24.68-.58,1.46-1.02,2.2-1.53.36.93.28,1.44.08,1.89-5.86,13.14-11.63,26.32-17.63,39.4-4.26,9.28-8.82,18.42-13.24,27.62-4.47,9.3-8.88,18.64-13.42,27.91-4.16,8.49-8.45,16.92-13.96,24.65-1.68,2.37-3.63,4.38-6.25,5.73-1.09.56-2.05,1.37-3.07,2.06.97.67,1.71.87,2.39.75,3.7-.64,6.78-2.64,9.45-5.08,4.48-4.08,8.44-8.63,11.13-14.18,2.1-4.34,4.46-8.56,6.6-12.88,3.65-7.37,7.2-14.79,10.86-22.15,1.22-2.44,2.68-4.76,3.98-7.17.46-.86.78-1.8,1.12-2.72.42-1.12.72-2.3,1.23-3.38,2.5-5.25,5.06-10.46,7.58-15.69,3.09-6.43,6.32-12.81,9.19-19.34,4.54-10.36,8.81-20.84,13.22-31.26.29-.67.65-1.48,1.22-1.84,2.94-1.83,5.97-3.54,9.28-5.47-.17.86-.15,1.52-.42,2.04-3.66,7.12-5.33,14.57-4.23,22.62.56,4.12,2.37,6.11,6.46,6.52,5.59.57,10.6-1.25,15.44-3.72,2.8-1.43,5.53-2.97,8.65-4.65.4,6.04,4.99,4.23,8.33,4.76.7,2.54,2.37,3.05,4.78,3.14,6.22.23,11.53-2.23,16.85-4.9,5.73-2.88,10.61-6.96,15.61-10.87,2.07-1.61,4.06-3.32,6.05-5.03,1.07-.92,2.06-1.94,3.11-2.9,3.57-3.26,7.19-6.46,10.69-9.78,2.54-2.41,4.9-5.01,7.39-7.48,1.4-1.38,3.01-2.56,4.35-4,3.06-3.29,5.92-6.77,9.03-10,4.71-4.9,9.52-9.72,14.38-14.47,2.11-2.07,4.54-3.81,6.67-5.86,1.65-1.59,3-3.48,4.6-5.13,4.48-4.63,10.17-7.99,13.98-13.33.25-.35.64-.6.96-.9,4.06-3.79,8.26-7.46,12.15-11.42,3.99-4.07,7.67-8.45,11.51-12.67,6.65-7.29,13.32-14.56,19.02-22.64,4.28-6.06,7.5-12.64,9.73-19.71.8-2.53.85-5-.64-7.27-.91-1.39-.65-2.54-.1-3.98,1.18-3.07,2.27-6.2,3.06-9.39,1.59-6.36-2.92-12.57-9.41-13.29-4.46-.5-8.82.17-12.99,1.56-10.25,3.42-19.95,8.05-28.95,14.07-.49.33-1.08.51-2.16,1,1.02-2.05,1.57-3.72,2.56-5.06,3.01-4.06,5.69-8.29,7.79-12.89.23-.49.54-.95.83-1.41,2.66-4.27,5.49-8.45,7.94-12.84,3.29-5.91,6.24-12.01,9.4-18,3.32-6.31,6.71-12.58,10.07-18.88,1.24-2.32,2.44-4.65,3.7-6.96,3.42-6.24,6.91-12.45,10.29-18.72,2.91-5.41,5.64-10.92,8.54-16.33,3.42-6.38,7.06-12.63,10.37-19.07,3.51-6.82,6.79-13.77,10.08-20.7,3.01-6.34,6.05-12.68,8.84-19.12,3.26-7.53,6.27-15.18,9.4-22.77,3.74-9.06,6.06-18.55,8.39-28.02,1.28-5.2,1.46-10.67,2.65-15.9,1.63-7.17,1.5-14.43,1.37-21.64ZM422.2,68.37c-6.07,3.74-12.14,7.49-18.76,11.57,2.59-4.26,13.49-11.16,18.76-11.57ZM338.32,111.17c12.71-8.04,25.68-15.64,39.08-22.49.09-.04.21-.02.32-.02.07.08.18.14.21.24.03.09.02.27-.04.31-2.98,2.06-5.91,4.21-8.97,6.13-11.09,6.97-21.93,14.36-33.52,20.48-.24-.23-.48-.47-.72-.7,1.21-1.34,2.19-3.02,3.65-3.95ZM329.2,118.22c.23-.13.73.21,1.21.37-2.64,2.39-18.68,10.99-21.25,11.36,5.81-5.7,13.4-7.93,20.05-11.74ZM436.15,77.07c-31.75,16.68-63.49,33.38-95.27,50-3.55,1.86-7.29,3.33-10.95,4.96-.04.02-.15-.14-.56-.51,33.76-22.03,69.24-40.4,106.54-55.14.2.22.32.29.33.38.02.1-.02.27-.09.31ZM472.31,55.89c-4.43,2.98-9.34,4.7-14.43,6.27-7.64,2.36-15.1,5.32-22.64,8.02-1.63.58-3.27,1.11-4.91,1.66-.11-.2-.22-.39-.33-.59,1.39-.86,2.79-1.73,4.18-2.59,2.04-1.26,4.09-2.52,6.13-3.79.37-.23.68-.62,1.08-.75,4.29-1.43,7.28-4.82,10.91-7.24,1.45-.97,2.97-1.95,4.6-2.52,7.66-2.66,15.37-5.17,23.07-7.74,1.35-.45,2.69-.95,4.05-1.37,1.21-.38,2.45-.68,3.68-1.01.11.31.22.63.33.94-3.37,2.43-6.7,4.9-10.11,7.26-1.8,1.25-3.79,2.23-5.61,3.45ZM73.51,227.72c2.71-7.89,5.79-15.63,9.88-22.94,5.69-10.18,12.79-19.19,21.94-26.44,2.46-1.95,5.45-3.24,8.24-4.75,1.07-.58,2.25-.73,3.79.43-1.86.95-3.42,1.74-4.99,2.54-4.04,2.06-7.57,4.8-10.73,8.07-7.37,7.63-13.22,16.35-18.39,25.55-1.71,3.04-2.94,6.34-4.4,9.52-.81,1.77-1.75,3.49-2.43,5.31-1.1,2.96-1.99,6.01-3.06,8.98-.31.86-.95,1.59-1.44,2.38-.2-.09-.4-.17-.6-.26.72-2.8,1.25-5.66,2.18-8.38ZM96.7,360.66c-2.34,3.96-4.76,7.89-7.33,11.71-1.14,1.7-2.05,1.71-3.39.02-1.63-2.05-3.13-4.26-4.34-6.58-5.81-11.19-9.83-23.02-11.9-35.47-1.3-7.79-2.36-15.61-3.54-23.42-.19-1.25-.43-2.5-.65-3.74.18.02.37.03.55.05.79,2.02,1.33,4.19,2.41,6.05,3.06,5.24,8.07,7.22,13.86,7.5,2.13.1,3.76-.98,4.74-2.92-.89-1.61-2.3-2.08-3.89-2.19-4.16-.29-6.74-2.49-8.53-6.24-2.74-5.72-3.36-11.81-3.75-17.95-.7-11.03.56-21.93,2.73-32.74,3.71-18.5,10.7-35.67,21.07-51.45,2.52-3.83,5.11-7.59,8.66-10.71-1.56,3.45-3.1,6.91-4.7,10.34-3.26,7.02-5.08,14.5-6.83,21.98-1.22,5.21-2.42,10.47-2.99,15.78-1,9.25-1.58,18.55-2.22,27.84-.31,4.59-.47,9.19-.48,13.79-.01,4.94.18,9.88.39,14.81.06,1.52.55,3.01.68,4.53.48,5.43.53,10.92,1.41,16.29,1.66,10.17,3.71,20.28,5.74,30.38.65,3.22,1.8,6.34,2.57,9.54.21.87.17,2.05-.27,2.79ZM120.02,201.48c-1.79,5.63-3.33,11.32-3.96,17.23-.4,3.7-1.14,7.37-1.56,11.07-1.22,10.77-3.62,21.39-4.1,32.25-.11,2.5.14,5.02.15,7.52,0,.86-.32,1.71-.33,2.57-.04,6.08-.6,12.18.59,18.23.12.62,0,1.29-.03,1.94-.09,1.75-.41,3.52-.24,5.25.29,2.92.33,5.83.31,8.76-.04,5.59.43,11.18.38,16.77-.02,2.47-.46,5.06-1.29,7.38-2.01,5.58-4.37,11.03-6.6,16.53-.12.29-.35.53-1.05,1.56-.81-2.98-1.49-5.26-2.04-7.57-2.95-12.54-4.79-25.26-6.05-38.06-1.61-16.43-1.67-32.89-.22-49.35.8-9.09,2.36-18.05,4.3-26.95,1.83-8.38,4.69-16.44,7.97-24.33,2.5-6.02,5.79-11.6,10.86-15.91.8-.68,1.65-1.29,2.84-2.21,1.18,6.16,1.83,11.7.05,17.31ZM36.9,542.54v-1.39c.19.02.52,0,.54.06.13.43.19.87.27,1.31-.27,0-.54.02-.8.02ZM36.59,473.34c-.34,4.47-1.09,8.91-1.3,13.38-.31,6.45-.28,12.91-.42,19.36-.1,4.39.32,8.73.6,13.1.35,5.32.85,10.63,1.23,15.95.04.53-.05,1.08-.55,1.74-.3-.94-.73-1.87-.89-2.84-1.99-12.18-2.81-24.47-2.3-36.78.47-11.3,1.01-22.63,3.06-33.78,1.57-8.54,3.18-17.08,5.26-25.5,1.68-6.81,4.08-13.43,6.18-20.14.08-.26.4-.46.99-1.1.7,3.65-.28,6.59-1.13,9.51-1.62,5.57-3.72,11.03-4.96,16.68-2.21,10.07-4.99,20.05-5.77,30.41ZM49.98,552.07c-3.85-30.14-6.8-59.62-2.87-89.32.36,0,.72.01,1.09.02,0,1.93-.02,3.86,0,5.79.08,5.48.12,10.97.28,16.45.18,6.64.43,13.28.71,19.92.37,8.87.87,17.74,1.17,26.62.21,6.36.2,12.74.26,19.11,0,.25-.22.51-.63,1.41ZM59.37,528.49h-.17v-1.87h.17v1.87ZM59.52,522.77v-7.12c.25.02.51.05.76.07-.27,2.49-.54,4.98-.76,7.05ZM60.35,512.8c-.42,0-.85,0-1.27,0,.78-13.61-.07-27.27,1.64-40.86.89,13.64-.4,27.23-.36,40.86ZM188.62,269.72c.31.37.62.75.93,1.12-.13.14-.26.27-.39.41-.39-.35-.78-.7-1.17-1.04.21-.16.42-.32.63-.48ZM185.58,284.47c.24.06.47.2.82.37-.26.32-.42.52-.59.72-.16-.2-.38-.39-.46-.62-.04-.12.19-.48.23-.47ZM163.62,315.05c.16-.15.41-.19.63-.28-.02.19.02.41-.07.56-.07.13-.29.17-.44.25-.05-.19-.19-.47-.12-.53ZM157.99,329.01c.21.02.42.04.63.06v1.85c-.31-.03-.61-.06-.92-.09.09-.61.19-1.22.28-1.82ZM167.52,411.51c-1.2-2.37-.64-4.51.14-6.24,2.56-5.7,5.44-11.25,8.23-16.84.15-.31.58-.47,1.35-.4-3.19,7.7-6.38,15.4-9.73,23.49ZM186.64,375.66c-.31-.04-.57-.45-.85-.7.21-.2.4-.56.62-.58.33-.02.68.19,1.41.43-.62.46-.93.87-1.18.84ZM193.51,362.12c-.22-.12-.36-.38-.53-.59.18-.1.36-.19.64-.34.14.23.29.47.44.7-.19.08-.44.29-.55.23ZM193.92,360.12c-.08.04-.59-.41-.56-.57.09-.47.35-.91.65-1.61.66.93.99,1.32.95,1.36-.3.32-.65.62-1.04.82ZM210.36,329.02c.29-2.24,1.66-1.56,2.5-1.91.08.25.16.5.24.76-.8.34-1.6.67-2.74,1.15ZM213.07,324.89c.18-.67.37-1.34.69-2.51,1.11,1.6.37,2.1-.69,2.51ZM218.74,315.5c-.13-.06-.16-.31-.23-.47.14-.11.27-.22.41-.34.11.22.22.44.32.66-.17.06-.38.2-.49.15ZM223.52,309.52c-.9,1.11-2.01,2.04-2.96,2.96.03-1.63.06-1.7,3.37-4.9-.13.66-.05,1.49-.42,1.95ZM230.54,296.12c-.54-1.53.24-2.06,1-2.62.24.21.48.41.72.62-.57.67-1.14,1.33-1.72,2ZM238.94,282.5c-.18-.07-.36-.13-.54-.2.25-.68.5-1.36.74-2.04.17.06.35.12.52.19-.24.68-.48,1.37-.72,2.05ZM245.61,252.35c-1.99,3.12-3.93,6.28-5.81,9.47-1.33,2.27-2.54,4.6-3.81,6.91-2.32,4.24-4.64,8.48-6.96,12.72-.73,1.34-1.45,2.69-2.19,4.03-1.94,3.53-3.85,7.08-5.84,10.59-1.92,3.4-3.95,6.73-5.89,10.13-1.73,3.04-3.33,6.14-5.09,9.16-2.63,4.54-5.39,9-8.02,13.54-1.58,2.71-2.98,5.53-4.54,8.25-2.56,4.46-5.22,8.86-7.77,13.32-.64,1.12-.97,2.43-1.56,3.59-.57,1.12-1.3,2.16-1.96,3.24-.26-.1-.52-.21-.78-.31.28-1.09.37-2.27.87-3.24,3.56-6.91,7.21-13.77,10.82-20.65,3.72-7.09,7.34-14.23,11.18-21.26,4.13-7.58,8.46-15.05,12.7-22.57,3.39-6,6.73-12.03,10.17-17.99,4.06-7.04,8.73-13.66,13.57-20.18.77-1.04,1.52-1.16,2.61.22-.67.39-1.4.57-1.69,1.03ZM219.22,253.69c.24-.16.47-.36.73-.46.08-.03.26.2.45.36-.21.2-.4.48-.64.55-.13.04-.36-.29-.55-.45ZM235.71,226.5c-5.4,6.75-10.31,13.9-15.41,20.88-1.73,2.37-3.22,4.86-4.58,7.51-2.33,4.55-5.67,8.56-8.27,12.99-3.82,6.51-7.36,13.18-11.01,19.78-4.18,7.57-7.24,15.67-11.02,23.43-3.07,6.3-5.97,12.63-8.39,19.22-1.74,4.72-4.25,9.16-6.1,13.85-3.07,7.8-5.86,15.7-8.81,23.55-1.23,3.28-2.57,6.53-3.87,9.79-2.07,5.18-4.14,10.35-6.24,15.52-.06.15-.35.22-.8.49-.16-.64-.43-1.2-.41-1.74.41-11.19.62-22.44,3.59-33.32,1.25-4.6,3.49-8.93,5.31-13.36,2.27-5.54,5.8-10.48,7.23-16.45.6-2.51,2.43-4.72,3.7-7.07,1.34-2.49,2.66-4.99,4.01-7.47.61-1.13,1.23-2.26,1.91-3.35,1.91-3.06,2.9-6.53,4.69-9.7,3.59-6.35,7.3-12.65,10.65-19.16,2.4-4.68,5.31-9.1,8.07-13.58,3.91-6.36,7.78-12.75,11.89-18.98,5.86-8.89,12.16-17.48,19.35-25.33,4.29-4.68,9.08-8.9,13.66-13.31,2.45-2.36,4.93-4.71,7.42-7.03.7-.65,1.49-1.2,2.39-1.91,1.02,1.52.31,2.21-.36,2.99-6.23,7.24-12.64,14.33-18.59,21.79ZM255.6,213.51c.25.21.5.41.75.62-1.87,1.95-3.73,3.91-5.6,5.86,1.03-2.69,2.83-4.68,4.85-6.48ZM256.83,252.49c-.17-.07-.33-.15-.5-.22.22-.31.43-.62.65-.94.11.05.22.11.34.16-.16.33-.33.66-.49,1ZM266.45,229.71c-.18-.21-.52-.42-.51-.61.02-.25.27-.58.51-.69.14-.07.45.2.95.46-.43.38-.69.61-.95.84ZM261.79,197.12c-.26-.25-.53-.5-.79-.75,1.72-2.18,3.82-3.96,6.17-5.48.15.15.3.31.45.46-1.94,1.92-3.89,3.84-5.83,5.76ZM295.75,174.46c-2.76-.48-4.49.95-6.16,2.9-3.41,4-7.01,7.83-10.26,11.43-2.85-.63-5.1-1.13-7.58-1.68,8.55-6.54,16.91-13.3,26.63-19.07-.45,2.64-1.65,4.4-2.63,6.42ZM152.46,614.87c2.8-8.84,3.83-17.99,5-27.12.35-2.71.82-5.41,1.18-8.13.29-2.16-.08-4.13-2.28-5.89,2.56-3.4,5.12-6.8,8.04-10.68.16,10.07-9.07,51.03-13.15,57.75.39-1.98.6-4.02,1.21-5.93ZM117.41,712c-.92,1.65-1.46,3.51-2.17,5.28-.28-.08-.56-.15-.84-.23.48-4.48.95-8.96,1.47-13.83,3.54,2.86,3.27,5.66,1.54,8.78ZM146.8,605.49c-2.28,10.63-4.76,21.22-7.14,31.83-.79,3.53-1.4,7.1-2.3,10.6-.85,3.29-2.15,6.46-2.93,9.76-2,8.5-4.8,16.75-7.32,25.09-1.39,4.61-2.57,9.28-3.88,13.91-.13.47-.52.87-.98,1.61-.49-.84-.96-1.33-1.08-1.89-1.63-7.67-2.65-15.39-1.11-23.21,1.46-7.42,2.81-14.87,4.44-22.25.92-4.17,2.33-8.22,3.44-12.35.69-2.53,1.06-5.16,1.89-7.63,1.35-4.04,2.97-7.98,4.47-11.97,1.47-3.91,2.84-7.85,4.41-11.72,2.36-5.81,5.85-10.95,9.59-15.92.28.08.57.16.85.24-.78,4.64-1.38,9.31-2.37,13.91ZM344.24,161.87c4.59-2.8,8.68-5.31,12.79-7.8,5.15-3.12,10.31-6.21,15.46-9.33,5.06-3.07,10.1-6.17,15.17-9.22,3.85-2.31,7.75-4.53,11.59-6.85,2.43-1.47,4.81-3.03,7.19-4.58,7.46-4.82,14.78-9.88,22.41-14.41,5.08-3.01,10.53-5.44,15.95-7.81,6.14-2.68,12.54-4.66,19.13-5.94.89-.17,1.79-.26,3.27-.47-1.62,3.27-3.26,5.67-5.17,7.89-5.75,6.68-12.13,12.7-18.75,18.5-9.51,8.33-19.56,15.96-30.14,22.87-2.84,1.85-5.96,3.28-9,4.81-12.49,6.28-24.29,13.68-35.7,21.74-3.55,2.51-7.22,4.87-11.3,7.6-1.43-8.04-3.89-14.82-12.92-17.02ZM336.78,276.18c.12-.12.38-.19.54-.15.12.03.19.27.33.51-.32.06-.59.1-.87.15,0-.18-.09-.42,0-.51ZM330.76,305.99c2.33-5.93,4.26-11.94,5.76-18.14.89-3.71,2.76-7.17,3.82-10.85,4.22-14.67,8.52-29.33,12.35-44.11,3.03-11.7,4.88-23.65,5.29-35.76.1-3.06.02-6.12.02-9.18,4.16-2.33,8.21-4.47,12.13-6.83,4.14-2.49,8.2-5.11,12.2-7.82,6.16-4.16,12.14-8.59,18.37-12.63,8.92-5.79,17.53-12.17,27.89-15.35,4.51-1.38,8.95-3.23,13.57-3.95,6.5-1,13.09-1.37,19.42,1.6,5.15,2.41,8.51,6.61,11.57,11.01,7.06,10.16,10.98,21.71,14.05,33.58.08.3-.03.64-.07,1.19-1.75.93-3.56,1.94-5.42,2.86-9.17,4.51-18.39,8.95-26.88,14.67-8.54,5.75-17.1,11.51-25.36,17.65-12.24,9.1-24.5,18.22-35.54,28.82-3.18,3.05-6.06,6.35-8.25,10.22-.94,1.67-2.13,3.2-3.22,4.8,2.84,1.52,5.43,1.05,7.2-.87,5.93-6.46,11.81-12.98,18.65-18.52,8.12-6.57,16.22-13.17,24.56-19.44,9.83-7.38,19.67-14.78,30.47-20.73,7.98-4.4,16.07-8.57,24.12-12.83.27-.14.6-.18,1.28-.36.17,1.1.31,2.11.48,3.12,2.14,12.76,1.69,25.45-1.5,37.97-1.57,6.18-4.19,12.04-7.19,17.66-6.59,12.38-15.85,22.55-26.22,31.88-9.78,8.81-20.44,16.3-32.09,22.32-10.34,5.35-20.94,10.25-32.14,13.55-6.63,1.95-13.39,3.84-20.23,4.55-7.13.74-14.34,1.33-21.66.34-7.18-.98-13.95-2.83-20.54-5.65-.4-.17-.79-.39-1.16-.62-.17-.11-.28-.32-.59-.7,1.57-4.39,3.07-8.96,4.82-13.43ZM312.52,355.51c7.84-2.41,15.7-4.77,23.56-7.12.27-.08.62.08,1.02.4-4.24,1.95-8.68,3.34-13.03,4.95-4.46,1.65-8.95,3.23-13.7,4.94.3-1.55.78-2.75,2.15-3.17ZM308,366.76c1.91-.83,3.85-1.57,5.79-2.31,7.99-3.02,15.96-6.09,23.99-9.02,7.2-2.63,14.4-5.28,21.71-7.59,6.05-1.91,12.25-3.33,18.39-4.93.61-.16,1.27-.13,2.34-.24-3.1,5.66-16.89,16.15-22.27,17.05-2.34-3.51-6.05-3.21-9.69-2.68-7.42,1.09-14.57,3.24-21.53,5.95-6.95,2.71-13.84,5.59-20.76,8.38-.18.07-.42,0-.88-.03.08-2.14.93-3.72,2.91-4.58ZM299.32,383.36c.27-.57,1.13-.99,1.81-1.2,6.18-1.96,12.37-3.88,18.56-5.78,5.56-1.7,11.13-3.37,16.7-5.04.8-.24,1.63-.41,2.44-.61.12.2.25.41.37.61-2.11,1.82-4.2,3.69-6.35,5.46-3.7,3.04-8.26,4.46-12.49,6.53-8.26,4.04-16.45,8.23-24.67,12.34-.48.24-1.02.37-2.27.82,2.14-4.81,3.96-9,5.91-13.12ZM280.52,383.15c-5.97,2.77-11.98,5.44-17.98,8.14-1.06.47-2.16.84-3.78,1.46,3.08-3.37,32.13-18.91,39.01-21.05-.35,2.1-1.04,3.71-2.98,4.63-4.76,2.26-9.49,4.61-14.27,6.82ZM225.95,417.32c.5-1.13.64-2.61,2.16-2.61.15.21.31.42.46.64-.87.66-1.75,1.31-2.62,1.97ZM213.94,416.96c-3.66,3.6-7.2,7.32-10.71,11.07-.94,1.01-1.79,1.85-3.86,1.64,1.33-2.23,2.25-4.33,3.65-6.02,7.67-9.22,16.18-17.57,25.65-24.97,6.13-4.8,12.73-8.86,19.22-13.1,4.02-2.62,7.96-5.38,12.11-7.78,3.78-2.19,7.78-4.01,11.71-5.93,5.13-2.49,10.22-5.06,15.45-7.32,4.72-2.05,9.59-3.75,14.41-5.58.39-.15.84-.14,1.58-.26.11,2.54-1.03,3.64-2.92,4.51-9.25,4.28-18.59,8.41-27.63,13.11-7.46,3.88-14.61,8.38-21.8,12.78-5.13,3.14-10.23,6.38-15.08,9.93-7.6,5.55-15.06,11.31-21.78,17.92ZM277.72,403.39c-7.41,2.55-14.4,6.32-21.62,9.46-3,1.3-6.14,2.28-9.2,3.47-2.95,1.16-5.86,2.43-8.81,3.6-1.17.47-2.4.8-3.6,1.2-.14-.26-.28-.52-.43-.77.3-.42.51-.98.91-1.24,18.17-11.73,36.19-23.71,56.28-32.62-.97,2-2.14,3.93-2.87,6.01-1.87,5.35-4.94,8.93-10.67,10.89ZM315.44,443.33c.07-.17.23-.82.61-1.33,5.88-7.93,11.58-16.01,17.76-23.7,6.03-7.5,12.36-14.8,18.95-21.82,4.79-5.11,10.05-9.82,15.41-14.36,4.26-3.61,8.77-7.04,14-9.2,2.2-.91,4.58-1.76,6.91-1.85,3.19-.11,6.03,3,6.82,6.59,1.1,5.02.87,10.12.12,15.09-1.9,12.67-5.83,24.77-10.86,36.55-4.79,11.22-10.02,22.2-15.89,32.88-4.76,8.65-9.42,17.37-14.41,25.89-5.21,8.88-10.77,17.56-16.14,26.34-1.3,2.12-2.49,4.31-3.72,6.46.72-27.8-4.49-53.66-19.54-77.56ZM292.13,657.14c-2.09,6.17-6.56,10.33-11.9,13.56-7.8,4.71-15.76,9.16-23.66,13.7-.17.1-.41.07-1.09.18.96-2.16,1.83-4.09,2.67-6.03,2.31-5.34,4.57-10.7,6.92-16.02,2.31-5.21,4.71-10.39,7.1-15.57,1.6-3.48,3.18-6.97,4.86-10.41,1.82-3.73,3.78-7.4,5.63-11.11,2.34-4.71,4.6-9.46,6.95-14.16,2.06-4.12,4.14-8.24,6.34-12.29,3.45-6.35,6.95-12.68,10.56-18.94,3.63-6.27,7.39-12.46,11.17-18.64,1.92-3.15,4-6.21,6-9.31l.71.17c-.66,3.08-1.28,6.17-1.99,9.25-4.15,18.1-9.16,35.95-15.35,53.46-1.79,5.07-3.33,10.22-5.15,15.28-2.44,6.81-5.04,13.56-7.55,20.35-.8,2.16-1.5,4.36-2.24,6.54ZM338.9,645.87c-6.05,7.88-11.31,16.2-14.53,25.67-.74,2.18-1.2,4.45-1.84,6.66-.59,2.06-1.3,4.11,1.84,5.35-4.85,3.08-9.31,5.8-14.52,6.95-2.74.6-3.13.1-3.74-2.57-1.25-5.48.74-10.46,2.34-15.44,1.13-3.54,2.85-6.9,4.36-10.32,1.19-2.7,3.16-4.56,5.81-6.01,4.5-2.48,8.82-5.3,13.16-8.06,2.85-1.81,5.6-3.78,8.68-5.86.21,1.79-.83,2.68-1.55,3.62ZM347.77,689.65c8.4-5.06,16.62-10.02,24.97-15.05-5.64,6.17-20.02,14.9-24.97,15.05ZM452.44,591.37c-6.64,7.9-13.67,15.47-20.31,23.38-8.24,9.81-17.69,18.32-27.58,26.37-9.11,7.42-18.14,14.95-27.46,22.09-6.53,5-13.44,9.53-20.31,14.09-3.47,2.31-7.19,4.24-10.85,6.26-.93.52-2.03.74-3.05,1.1-1.34-4.27-1.3-4.54,1.7-6.94,5.57-4.45,11.24-8.8,16.76-13.32,2.87-2.35,5.49-4.99,8.24-7.47,4.15-3.74,8.31-7.45,12.47-11.18,3.02-2.71,6.08-5.37,9.03-8.15,6.46-6.08,12.88-12.2,19.28-18.33,6.17-5.91,12.37-11.8,18.43-17.83,5.14-5.12,10.08-10.44,15.13-15.64,4.66-4.79,9.43-9.47,14.03-14.32,5.35-5.64,10.6-11.39,15.85-17.13,2.73-2.99,5.56-5.92,8.01-9.14,2.44-3.21,4.48-6.74,6.66-10.15.35-.55.56-1.19.85-1.79,2.06-4.25,3.46-4.89,9.09-3.85-3.89,5.91-7.52,11.76-11.49,17.38-5.14,7.26-10.43,14.43-15.87,21.46-6.05,7.81-12.24,15.53-18.59,23.1ZM406.01,585.56c2.77-3.1,5.34-6.41,8.27-9.36,2.92-2.94,6.06-5.7,9.32-8.28,5.93-4.7,11.96-9.3,18.06-13.78,7.81-5.73,16.16-10.58,24.87-14.83,1.44-.7,2.87-1.42,4.3-2.13l.74.71c-.78,1.65-1.36,3.42-2.36,4.91-3.11,4.65-6.18,9.36-9.64,13.75-5.17,6.54-10.54,12.95-16.08,19.19-7,7.9-14.4,15.41-22.29,22.45-4.58,4.09-8.76,8.62-13.19,12.88-2.21,2.13-4.6,4.07-6.87,6.13-8.31,7.5-16.51,15.13-24.94,22.49-9.43,8.23-19.07,16.21-28.64,24.29-.36.31-.88.43-1.62.78.03-.77-.07-1.23.09-1.58,4.74-10.76,10.19-21.13,16.88-30.83,2.42-3.51,4.5-7.29,7.18-10.58,3.18-3.91,6.61-7.68,10.33-11.07,8.85-8.07,17.61-16.21,25.6-25.15ZM386.21,587.7c.89-1.2,1.81-2.38,2.67-3.6,3.48-4.91,7.68-9.18,11.84-13.5,4.17-4.33,8.14-8.86,12.48-13.01,4.42-4.22,9.19-8.08,13.82-12.08,1.4-1.2,2.87-2.32,4.68-3.24-.22.48-.35,1.02-.66,1.43-2.92,3.84-5.95,7.6-8.8,11.49-3.28,4.48-7.58,7.86-11.73,11.44-4.64,4.01-9.1,8.23-13.63,12.37-3.36,3.07-6.71,6.14-10.06,9.21-.2-.17-.41-.35-.61-.52ZM498.73,542c-2.94,5.65-6.07,11.15-10.28,16.01-4.95,5.72-9.69,11.61-14.53,17.42-.83,1-1.75,1.94-2.62,2.9-.2-.13-.4-.27-.6-.4,9.01-12.84,20.07-24.19,27.66-38.07.22.08.44.15.66.23-.09.64-.01,1.36-.29,1.9ZM470.41,516.38c6.33-3.55,12.82-6.83,19.9-8.66,2.74-.71,5.6-1.24,8.42-1.33,4.3-.14,6.24,2.31,5.61,6.53-.54,3.61-1.72,7-3.37,10.46-2.11-.1-4.15-.2-6.11-.3-2.36-5.04-5.79-6.28-12.07-4.62-5.57,1.48-10.77,3.83-15.68,6.76-6.88,4.1-13.62,8.45-20.37,12.76-1.69,1.07-3.22,2.38-5.29,3.93.99-3.23,8.16-13.34,10.19-14.55,6.23-3.71,12.45-7.44,18.77-10.99ZM563.03,266.51c-.35,14.73-3.33,29-7.65,43.05-4.47,14.54-10.24,28.54-16.83,42.22-5.48,11.37-10.97,22.75-16.7,34-4.83,9.49-10.01,18.81-15.02,28.21-3.66,6.87-7.28,13.77-10.97,20.63-4.22,7.83-8.52,15.62-12.74,23.45-4.89,9.08-9.6,18.26-14.64,27.26-4.29,7.66-8.85,15.17-13.44,22.65-3.44,5.61-7.14,11.05-10.66,16.6-1.26,1.98-2.82,3.56-4.73,4.95-12.63,9.17-25.13,18.53-36.16,29.61-6.65,6.69-12.96,13.76-18.98,21.03-8.83,10.68-16.95,21.91-24.45,33.57-.47.73-1.04,1.44-1.72,1.96-2.56,1.98-2.59,1.95-1.25,5.21-.64.73-1.25,1.69-2.09,2.34-4.19,3.2-8.41,6.37-12.67,9.47-3.55,2.58-7.16,5.08-10.78,7.57-2.68,1.84-5.41,3.61-8.53,5.09.25-.65.44-1.33.75-1.94,3.25-6.32,7.79-11.61,12.75-16.66,10.21-10.41,20.25-20.98,30.24-31.6,2.7-2.87,5.01-6.11,7.45-9.22.99-1.26,1.75-2.72.6-4.21-1.04-1.35-2.44-2.17-4.31-1.82-2.92.54-5.32,2.11-7.51,3.95-5.81,4.88-11.22,10.19-15.97,16.12-6.31,7.89-12.97,15.53-18.7,23.82-6.26,9.06-14.12,16.41-22.25,23.6-1.62,1.43-3.28,2.82-5.2,4.48.23-1.01.28-1.78.58-2.45,4.67-10.68,7.82-21.9,11.7-32.86,1.98-5.59,3.49-11.34,5.22-17.02,2.23-7.34,4.47-14.68,6.66-22.02.6-2,1.15-4.01,1.57-6.05,1.08-5.15,2.12-10.32,3.08-15.49,1.03-5.61,1.79-11.27,3-16.84.5-2.3,1.66-4.54,2.92-6.56,4.4-7.09,9.07-14.01,13.46-21.1,3.52-5.69,6.75-11.56,10.17-17.31,2.07-3.48,4.41-6.8,6.34-10.34,5.21-9.54,10.3-19.15,15.36-28.77,2.6-4.95,5.2-9.91,7.51-15,5.36-11.82,10.12-23.85,13.03-36.57,1.5-6.58,2.34-13.2,2.59-19.91.14-3.86-.31-7.64-2.65-11.01-1.89-2.72-4.26-4.83-7.32-5.86-5.74-1.94-11.43-1.83-16.91,1.14-8.29,4.49-15.15,10.81-22.05,17.07-2.28,2.07-4.52,4.18-6.6,6.44-4.54,4.9-9.17,9.74-13.39,14.91-6.73,8.23-13.19,16.69-19.71,25.1-1.47,1.9-2.73,3.95-4.35,6.31-7.55-8.89-16.57-15.4-27.44-18.78-.44-1.65.68-1.99,1.48-2.46,4.46-2.61,8.96-5.15,13.4-7.79,3.58-2.13,7.14-4.31,10.65-6.56,4.8-3.08,9.5-6.31,14.31-9.37,6.1-3.9,12.18-7.84,18.42-11.5,7.76-4.54,15.65-8.84,23.53-13.16,1.82-1,3.83-1.66,5.77-2.42,1.73-.67,3.08-1.53,3.34-3.64.09-.71.81-1.52,1.46-1.97,6.1-4.21,11.19-9.52,16.35-14.75,1.77-1.79,1.61-3.94.08-5.92-2.65-3.45-6.53-3.64-10.16-3.41-11.74.75-23.47,1.79-35.01,4.17-9.25,1.91-18.4,4.24-27.59,6.43-1.32.31-2.58.84-4.5,1.47,3.14-8.14,6.03-15.63,8.98-23.25.58.13,1.03.12,1.36.32,8.11,4.69,17.06,6.13,26.2,6.86,14.12,1.12,27.86-1.12,41.25-5.33,6.78-2.13,13.24-5.29,19.93-7.73,7.27-2.65,13.93-6.48,20.58-10.31,7.34-4.23,14.25-9.14,20.78-14.5,5.15-4.24,10.1-8.84,14.53-13.82,6.25-7.02,12.65-14.06,16.88-22.58,4.66-9.37,8.47-19.16,9.67-29.61,1.1-9.49,1.15-19.08-.26-28.6-.35-2.37-.69-4.74-1.02-7,8.43-4.28,17.09-6.09,26.1-5.89,5.88.13,11.43,1.76,16.61,4.77,5.84,3.4,10.61,7.91,14.17,13.54,4.07,6.44,6.92,13.43,8.56,20.96,2.92,13.42,3.84,26.99,3.51,40.67ZM384.52,345.11c.12-.17.26-.48.37-.48.27.02.52.19.8.31-.15.22-.28.5-.34.49-.29-.06-.55-.21-.83-.32Z"/>
</svg>